<?xml version="1.0" encoding="UTF-8" standalone="no"?>
<svg
   xmlns:dc="http://purl.org/dc/elements/1.1/"
   xmlns:cc="http://creativecommons.org/ns#"
   xmlns:rdf="http://www.w3.org/1999/02/22-rdf-syntax-ns#"
   xmlns:svg="http://www.w3.org/2000/svg"
   xmlns="http://www.w3.org/2000/svg"
   xmlns:xlink="http://www.w3.org/1999/xlink"
   xmlns:sodipodi="http://sodipodi.sourceforge.net/DTD/sodipodi-0.dtd"
   xmlns:inkscape="http://www.inkscape.org/namespaces/inkscape"
   height="1080"
   id="svg8"
   version="1.1"
   viewBox="0 0 508 285.75001"
   width="1920"
   sodipodi:docname="Back.svg"
   inkscape:export-filename="D:\WALLPAPER\desert vector.png"
   inkscape:export-xdpi="69"
   inkscape:export-ydpi="69"
   inkscape:version="0.92.5 (2060ec1f9f, 2020-04-08)">
  <defs
     id="defs2">
    <linearGradient
       id="linearGradient1039"
       inkscape:collect="always">
      <stop
         id="stop1035"
         offset="0"
         style="stop-color:#fdcd8b;stop-opacity:0.608" />
      <stop
         id="stop1037"
         offset="1"
         style="stop-color:#efa580;stop-opacity:0.60568627" />
    </linearGradient>
    <linearGradient
       id="linearGradient1023"
       inkscape:collect="always">
      <stop
         id="stop1019"
         offset="0"
         style="stop-color:#bf4955;stop-opacity:1" />
      <stop
         id="stop1021"
         offset="1"
         style="stop-color:#f37857;stop-opacity:1" />
    </linearGradient>
    <linearGradient
       id="linearGradient1009"
       inkscape:collect="always">
      <stop
         id="stop1005"
         offset="0"
         style="stop-color:#bf4955;stop-opacity:1" />
      <stop
         id="stop1007"
         offset="1"
         style="stop-color:#f37857;stop-opacity:1" />
    </linearGradient>
    <linearGradient
       id="linearGradient5043"
       inkscape:collect="always">
      <stop
         id="stop5041"
         offset="0"
         style="stop-color:#270134;stop-opacity:1" />
      <stop
         id="stop5039"
         offset="1"
         style="stop-color:#ffeb90;stop-opacity:1" />
    </linearGradient>
    <linearGradient
       gradientUnits="userSpaceOnUse"
       id="linearGradient5045"
       x1="253.18808"
       x2="253.18808"
       y1="-2.53424"
       y2="169.90585"
       inkscape:collect="always"
       xlink:href="#linearGradient5043" />
    <linearGradient
       gradientUnits="userSpaceOnUse"
       id="linearGradient1011"
       x1="498.92859"
       x2="378.73215"
       y1="55.184521"
       y2="122.46429"
       inkscape:collect="always"
       xlink:href="#linearGradient1009" />
    <linearGradient
       gradientUnits="userSpaceOnUse"
       id="linearGradient1025"
       x1="24.190477"
       x2="132.29167"
       y1="68.791664"
       y2="117.92857"
       inkscape:collect="always"
       xlink:href="#linearGradient1023" />
    <linearGradient
       gradientUnits="userSpaceOnUse"
       id="linearGradient1041"
       x1="255.51192"
       x2="255.5119"
       y1="29.482143"
       y2="156.48215"
       inkscape:collect="always"
       xlink:href="#linearGradient1039" />
    <linearGradient
       gradientTransform="matrix(1.2620455,0,0,1.2620455,-66.559548,-27.733148)"
       gradientUnits="userSpaceOnUse"
       id="linearGradient1053"
       x1="255.51192"
       x2="255.5119"
       y1="29.482143"
       y2="156.48215"
       inkscape:collect="always"
       xlink:href="#linearGradient1039" />
    <linearGradient
       gradientTransform="matrix(1.5561632,0,0,1.5561632,-141.26543,-58.860603)"
       gradientUnits="userSpaceOnUse"
       id="linearGradient1059"
       x1="255.51192"
       x2="255.5119"
       y1="29.482143"
       y2="156.48215"
       inkscape:collect="always"
       xlink:href="#linearGradient1039" />
  </defs>
  <sodipodi:namedview
     bordercolor="#000000"
     borderlayer="true"
     borderopacity="1"
     id="base"
     pagecolor="#ffffff"
     showgrid="false"
     showguides="false"
     units="px"
     inkscape:current-layer="layer6"
     inkscape:cx="126.39914"
     inkscape:cy="711.2845"
     inkscape:document-units="mm"
     inkscape:pageopacity="0.0"
     inkscape:pageshadow="2"
     inkscape:showpageshadow="false"
     inkscape:snap-global="false"
     inkscape:window-height="740"
     inkscape:window-maximized="1"
     inkscape:window-width="1366"
     inkscape:window-x="0"
     inkscape:window-y="0"
     inkscape:zoom="0.24748737">
    <sodipodi:guide
       id="guide4560"
       orientation="1,0"
       position="-79.375,40.82143"
       inkscape:locked="false" />
  </sodipodi:namedview>
  <metadata
     id="metadata5">
    <rdf:RDF>
      <cc:Work
         rdf:about="">
        <dc:format>image/svg+xml</dc:format>
        <dc:type
           rdf:resource="http://purl.org/dc/dcmitype/StillImage" />
        <dc:title />
      </cc:Work>
    </rdf:RDF>
  </metadata>
  <g
     id="layer6"
     style="opacity:1"
     inkscape:groupmode="layer"
     inkscape:label="Back">
    <path
       style="fill:#bc4559;fill-opacity:1;stroke:none;stroke-width:0.99999994px;stroke-linecap:butt;stroke-linejoin:miter;stroke-opacity:1"
       d="M 1783.6309 290.51562 C 1775.6753 290.51562 1769.2695 297.97422 1769.2695 307.23828 L 1769.2695 333.39062 C 1765.3789 333.76811 1760.8564 333.91135 1759.9844 332.63086 C 1758.4085 330.31667 1759.9844 314.97266 1759.9844 314.97266 C 1759.9844 311.71169 1757.7301 309.08594 1754.9297 309.08594 C 1752.1294 309.08594 1749.875 311.71169 1749.875 314.97266 L 1749.875 338.51758 C 1749.875 341.77852 1752.3661 343.31114 1755.1641 343.44531 L 1769.2695 344.12305 L 1769.2695 369.5332 C 1760.8041 369.71188 1748.2729 369.69931 1746.1309 368.10938 C 1742.8582 365.68031 1745.4531 340.35352 1745.4531 340.35352 C 1745.4531 337.14703 1742.626 334.56641 1739.1152 334.56641 C 1735.6044 334.56641 1732.7277 337.14757 1732.7793 340.35352 L 1733.2871 371.92188 C 1733.3389 375.1278 1737.8105 379.78414 1741.3203 379.88086 L 1769.2695 380.65234 L 1769.2695 408.83594 C 1761.0299 410.57272 1751.531 412.44831 1740.9355 414.36719 A 11.616754 12.879445 0 0 0 1729.3809 402.69336 A 11.616754 12.879445 0 0 0 1717.7637 415.57227 A 11.616754 12.879445 0 0 0 1718.0371 418.27734 C 1708.6778 419.77773 1698.6827 421.25948 1688.1523 422.68164 A 29.7995 21.970818 0 0 0 1659.1758 405.72266 A 29.7995 21.970818 0 0 0 1632.123 418.53711 A 11.111678 14.647212 0 0 0 1624.3262 414.30859 A 11.111678 14.647212 0 0 0 1613.2129 428.95703 A 11.111678 14.647212 0 0 0 1613.2891 430.50195 C 1603.0193 431.26521 1592.4972 431.92919 1581.707 432.45117 A 13.131983 8.0812202 0 0 0 1569.2715 426.93555 A 13.131983 8.0812202 0 0 0 1556.4121 433.39062 C 1494.5722 435.06878 1426.0774 432.06732 1356.6816 420.0293 C 1300.2876 410.24667 1245.5992 417.8491 1200.3828 430.41211 L 1200.3828 414.85742 L 1208.6914 414.66406 C 1210.3327 414.62585 1211.473 411.85464 1211.4844 410.21289 L 1211.5977 392.21289 C 1211.6081 390.57114 1210.6769 389.19141 1209.0352 389.19141 C 1207.3934 389.19141 1206.0723 390.51251 1206.0723 392.1543 C 1206.0723 392.1543 1206.596 406.95299 1205.2129 408.50781 C 1204.7677 409.00829 1202.7878 409.16804 1200.3828 409.17969 L 1200.3828 384.52148 C 1200.3828 379.57442 1196.4002 375.5918 1191.4531 375.5918 C 1186.5061 375.5918 1182.5234 379.57442 1182.5234 384.52148 L 1182.5234 398.47852 C 1180.0921 398.68358 1177.2944 398.77105 1176.748 398.08203 C 1175.7681 396.84624 1176.748 388.65234 1176.748 388.65234 C 1176.748 386.91096 1175.3468 385.50977 1173.6055 385.50977 C 1171.8641 385.50977 1170.4609 386.91096 1170.4609 388.65234 L 1170.4609 401.22461 C 1170.4609 402.96599 1172.0101 403.7858 1173.75 403.85742 L 1182.5234 404.21875 L 1182.5234 417.77344 C 1177.2601 417.87223 1169.4819 417.88603 1168.1348 417.02734 C 1166.0997 415.73021 1167.7129 402.20703 1167.7129 402.20703 C 1167.7129 400.49472 1165.9547 399.11523 1163.7715 399.11523 C 1161.5883 399.11523 1159.798 400.49502 1159.8301 402.20703 L 1160.1465 419.06445 C 1160.1805 420.77647 1162.9601 423.26279 1165.1426 423.31445 L 1182.5234 423.72656 L 1182.5234 435.76758 C 1174.1455 438.46465 1166.1987 441.28756 1158.6992 444.14453 A 12.374369 12.879445 0 0 0 1147.5332 436.78516 A 12.374369 12.879445 0 0 0 1136.2324 444.44336 A 22.142856 20.714284 0 0 0 1123.5723 440.71484 A 22.142856 20.714284 0 0 0 1101.6348 458.76172 A 18.214285 17.857143 0 0 0 1093.5723 473.57227 A 18.214285 17.857143 0 0 0 1093.6133 474.69922 C 1089.4243 477.12083 1087.1426 478.57227 1087.1426 478.57227 C 1087.1426 478.57227 958.57011 571.02586 781.42773 538.57227 C 594.28488 504.28655 592.85742 435.71509 472.85742 438.57227 C 405.05635 440.18657 394.24651 456.85248 363.15625 477.22852 A 13.214286 8.2142861 0 0 0 357.5 476.42773 A 13.214286 8.2142861 0 0 0 344.28711 484.62109 A 12.857142 14.642857 0 0 0 337.14258 482.14258 A 12.857142 14.642857 0 0 0 324.28516 496.78516 A 12.857142 14.642857 0 0 0 324.3125 497.64844 C 309.90882 503.61458 292.04979 509.58501 269.12109 515.32227 L 269.12109 505.46875 L 282.48047 505.09961 C 284.15809 505.05339 286.29575 502.82726 286.32031 501.29492 L 286.5625 486.20703 C 286.58718 484.67466 285.21129 483.43945 283.5332 483.43945 C 281.85512 483.43945 280.50391 484.6744 280.50391 486.20703 C 280.50391 486.20703 281.74588 498.31162 280.18164 499.47266 C 279.14624 500.24116 273.16679 500.22902 269.12109 500.14062 L 269.12109 488.00781 L 275.86328 487.68359 C 277.20065 487.61946 278.39062 486.88676 278.39062 485.32812 L 278.39062 474.07422 C 278.39063 472.51554 277.31311 471.26172 275.97461 471.26172 C 274.6361 471.26172 273.55859 472.51554 273.55859 474.07422 C 273.55859 474.07422 274.31182 481.40951 273.55859 482.51562 C 273.13876 483.13215 270.98958 483.05451 269.12109 482.87109 L 269.12109 470.37891 C 269.12109 465.95089 266.06037 462.38477 262.25781 462.38477 C 258.45526 462.38477 255.39258 465.95089 255.39258 470.37891 L 255.39258 492.44922 C 253.54354 492.43885 252.02195 492.29571 251.67969 491.84766 C 250.6166 490.456 251.01953 477.21094 251.01953 477.21094 C 251.01953 475.74142 250.00415 474.55664 248.74219 474.55664 C 247.48023 474.55664 246.76346 475.7922 246.77148 477.26172 L 246.85938 493.37305 C 246.86731 494.84253 247.74424 497.32322 249.00586 497.35742 L 255.39258 497.53125 L 255.39258 518.58594 C 244.63152 521.02001 232.90071 523.40427 220 525.71484 C 204.46502 528.49723 189.54294 530.57201 175.2168 532.05664 A 7.1428569 5.8928571 0 0 0 175.35742 530.89258 A 7.1428569 5.8928571 0 0 0 168.21484 525 A 7.1428569 5.8928571 0 0 0 162.25781 527.64844 A 14.464286 13.571428 0 0 0 151.25 522.85742 A 14.464286 13.571428 0 0 0 136.91406 534.7207 C 127.52046 535.0412 118.45057 535.09172 109.67773 534.92578 L 109.67773 477.37695 L 123.4043 476.94141 C 126.11533 476.85554 127.99824 470.63059 128.01562 466.94336 L 128.20508 426.51758 C 128.22233 422.83035 126.68245 419.73242 123.9707 419.73242 C 121.25895 419.73242 119.07617 422.7014 119.07617 426.38867 C 119.07617 426.38867 119.94261 459.62329 117.6582 463.11523 C 116.91772 464.24713 113.68884 464.64102 109.67773 464.66211 L 109.67773 409.24414 C 109.67773 398.13349 103.10078 389.18945 94.929688 389.18945 C 86.758593 389.18945 80.179688 398.13349 80.179688 409.24414 L 80.179688 440.60938 C 76.18378 441.06204 71.538122 441.23486 70.642578 439.69922 C 69.024007 436.92372 70.642578 418.52148 70.642578 418.52148 C 70.642578 414.6105 68.325451 411.46289 65.449219 411.46289 C 62.572994 411.46289 60.257812 414.6105 60.257812 418.52148 L 60.257812 446.75977 C 60.257812 450.67071 62.81762 452.50903 65.691406 452.66992 L 80.179688 453.48047 L 80.179688 483.95703 C 71.484844 484.17137 58.614314 484.157 56.414062 482.25 C 53.052759 479.33678 55.716797 448.96094 55.716797 448.96094 C 55.716797 445.11531 52.814914 442.01953 49.208984 442.01953 C 45.603043 442.01953 42.646173 445.11599 42.699219 448.96094 L 43.222656 486.82227 C 43.275683 490.66722 47.86772 496.25311 51.472656 496.36914 L 80.179688 497.29297 L 80.179688 533.48242 C 56.09797 531.54229 34.827253 527.93107 16.404297 523.56836 A 13.928572 21.071428 0 0 0 2.5 503.57227 A 13.928572 21.071428 0 0 0 -10.253906 516.20508 C -50.764677 503.32615 -71.427734 488.57227 -71.427734 488.57227 L -257.14258 600 L -274.28516 1257.1426 L 2151.4277 1260 L 2151.4277 1154.2852 C 2151.4277 1154.2852 2094.286 425.71372 2082.8574 334.28516 C 2073.598 260.2092 1989.5628 329.51499 1868.1426 378.32227 A 11.111678 20.20305 0 0 0 1857.6699 364.8125 A 11.111678 20.20305 0 0 0 1846.5586 385.01562 A 11.111678 20.20305 0 0 0 1846.5957 386.5918 C 1830.9189 392.31519 1814.6909 397.56312 1797.9902 402.0332 L 1797.9902 364.04688 L 1811.3535 363.68359 C 1813.993 363.612 1815.8286 358.42012 1815.8438 355.3457 L 1816.0273 321.63867 C 1816.0442 318.56426 1814.5464 315.98242 1811.9062 315.98242 C 1809.2661 315.98242 1807.1406 318.45678 1807.1406 321.53125 C 1807.1406 321.53125 1807.9839 349.24466 1805.7598 352.15625 C 1805.0389 353.09986 1801.8946 353.42567 1797.9902 353.44336 L 1797.9902 307.23828 C 1797.9902 297.97422 1791.5864 290.51563 1783.6309 290.51562 z "
       transform="scale(0.26458333)"
       id="path855" />
  </g>
</svg>
