<?xml version="1.0" encoding="UTF-8" standalone="no"?>
<svg
   xmlns:dc="http://purl.org/dc/elements/1.1/"
   xmlns:cc="http://creativecommons.org/ns#"
   xmlns:rdf="http://www.w3.org/1999/02/22-rdf-syntax-ns#"
   xmlns:svg="http://www.w3.org/2000/svg"
   xmlns="http://www.w3.org/2000/svg"
   xmlns:xlink="http://www.w3.org/1999/xlink"
   xmlns:sodipodi="http://sodipodi.sourceforge.net/DTD/sodipodi-0.dtd"
   xmlns:inkscape="http://www.inkscape.org/namespaces/inkscape"
   height="100%"
   id="svg8"
   version="1.1"
   viewBox="0 0 132.29166 52.916669"
   width="100%"
   sodipodi:docname="CloudFar.svg"
   inkscape:export-filename="D:\WALLPAPER\desert vector.png"
   inkscape:export-xdpi="69"
   inkscape:export-ydpi="69"
   inkscape:version="0.92.5 (2060ec1f9f, 2020-04-08)">
  <defs
     id="defs2">
    <linearGradient
       id="linearGradient5043"
       inkscape:collect="always">
      <stop
         id="stop5041"
         offset="0"
         style="stop-color:#ecbca4;stop-opacity:1" />
      <stop
         id="stop5039"
         offset="1"
         style="stop-color:#feffeb;stop-opacity:1;" />
    </linearGradient>
    <linearGradient
       gradientUnits="userSpaceOnUse"
       id="linearGradient5045"
       x1="250.16428"
       x2="250.16428"
       y1="3.5133791"
       y2="282.54276"
       inkscape:collect="always"
       xlink:href="#linearGradient5043" />
  </defs>
  <sodipodi:namedview
     bordercolor="#000000"
     borderlayer="true"
     borderopacity="1"
     id="base"
     pagecolor="#ffffff"
     showgrid="false"
     showguides="false"
     units="px"
     inkscape:current-layer="g4876"
     inkscape:cx="65.1457"
     inkscape:cy="23.573808"
     inkscape:document-units="mm"
     inkscape:pageopacity="0.0"
     inkscape:pageshadow="2"
     inkscape:showpageshadow="false"
     inkscape:snap-global="false"
     inkscape:window-height="740"
     inkscape:window-maximized="1"
     inkscape:window-width="1366"
     inkscape:window-x="0"
     inkscape:window-y="0"
     inkscape:zoom="3.9597979">
    <sodipodi:guide
       id="guide4560"
       orientation="1,0"
       position="-79.375,40.82143"
       inkscape:locked="false" />
  </sodipodi:namedview>
  <metadata
     id="metadata5">
    <rdf:RDF>
      <cc:Work
         rdf:about="">
        <dc:format>image/svg+xml</dc:format>
        <dc:type
           rdf:resource="http://purl.org/dc/dcmitype/StillImage" />
        <dc:title />
      </cc:Work>
    </rdf:RDF>
  </metadata>
  <g
     id="layer11"
     inkscape:groupmode="layer"
     inkscape:label="Clouds"
     transform="translate(0,-232.83333)">
    <g
       id="g4876"
       transform="matrix(1.2134662,0,0,1.2797346,-20.849178,220.19846)">
      <path
         style="opacity:0.98000004;fill:#56595a;fill-opacity:0.98039216;stroke:none;stroke-width:1.10000002;stroke-linecap:square;stroke-linejoin:bevel;stroke-miterlimit:4;stroke-dasharray:none;stroke-opacity:1;paint-order:markers fill stroke"
         d="m 55.111978,10.547618 c -3.642545,-0.60728 -5.210011,3.805069 -7.439635,4.477375 -5.685631,-0.899141 -10.968217,4.61428 -9.60407,9.896522 -0.362251,1.885384 -4.521338,2.558278 -5.158372,5.130632 -3.232248,6.094592 4.245504,11.707459 10.282554,11.503281 4.281771,0.591556 7.689199,-2.660942 11.784321,-1.082171 2.671666,0.02272 4.868382,-1.9221 7.322144,0.06859 7.10826,2.564132 14.931036,1.164148 22.05799,0.992593 6.919881,1.718299 16.30781,1.562507 20.86486,-4.45595 6.00123,-4.070213 7.92419,-12.911313 3.07408,-18.556194 -2.93707,-2.577508 -5.28586,-6.600762 -10.044922,-6.094401 -2.707036,0.01323 -6.638699,0.944492 -6.993461,3.978792 -4.366686,0.128131 -7.2219,-4.738201 -12.107451,-3.513448 -2.797889,-2.040983 -7.213618,-2.9900594 -10.537853,-1.035767 -2.284058,0.93148 -5.78672,-0.86124 -8.035789,1.495298 -1.269848,-1.626535 -3.285371,-2.820157 -5.464396,-2.805147 z"
         id="path4836"
         inkscape:connector-curvature="0" />
    </g>
  </g>
</svg>
