<?xml version="1.0" encoding="UTF-8" standalone="no"?>
<svg
   xmlns:dc="http://purl.org/dc/elements/1.1/"
   xmlns:cc="http://creativecommons.org/ns#"
   xmlns:rdf="http://www.w3.org/1999/02/22-rdf-syntax-ns#"
   xmlns:svg="http://www.w3.org/2000/svg"
   xmlns="http://www.w3.org/2000/svg"
   xmlns:xlink="http://www.w3.org/1999/xlink"
   xmlns:sodipodi="http://sodipodi.sourceforge.net/DTD/sodipodi-0.dtd"
   xmlns:inkscape="http://www.inkscape.org/namespaces/inkscape"
   height="100%"
   id="svg8"
   version="1.1"
   viewBox="0 0 132.29166 52.916669"
   width="100%"
   sodipodi:docname="Clouds.svg"
   inkscape:export-filename="D:\WALLPAPER\desert vector.png"
   inkscape:export-xdpi="69"
   inkscape:export-ydpi="69"
   inkscape:version="0.92.5 (2060ec1f9f, 2020-04-08)">
  <defs
     id="defs2">
    <linearGradient
       id="linearGradient5043"
       inkscape:collect="always">
      <stop
         id="stop5041"
         offset="0"
         style="stop-color:#ecbca4;stop-opacity:1" />
      <stop
         id="stop5039"
         offset="1"
         style="stop-color:#feffeb;stop-opacity:1;" />
    </linearGradient>
    <linearGradient
       gradientUnits="userSpaceOnUse"
       id="linearGradient5045"
       x1="250.16428"
       x2="250.16428"
       y1="3.5133791"
       y2="282.54276"
       inkscape:collect="always"
       xlink:href="#linearGradient5043" />
  </defs>
  <sodipodi:namedview
     bordercolor="#000000"
     borderlayer="true"
     borderopacity="1"
     id="base"
     pagecolor="#ffffff"
     showgrid="false"
     showguides="false"
     units="px"
     inkscape:current-layer="g4876"
     inkscape:cx="36.181577"
     inkscape:cy="25.644503"
     inkscape:document-units="mm"
     inkscape:pageopacity="0.0"
     inkscape:pageshadow="2"
     inkscape:showpageshadow="false"
     inkscape:snap-global="false"
     inkscape:window-height="740"
     inkscape:window-maximized="1"
     inkscape:window-width="1366"
     inkscape:window-x="0"
     inkscape:window-y="0"
     inkscape:zoom="3.9597979">
    <sodipodi:guide
       id="guide4560"
       orientation="1,0"
       position="-79.375,40.82143"
       inkscape:locked="false" />
  </sodipodi:namedview>
  <metadata
     id="metadata5">
    <rdf:RDF>
      <cc:Work
         rdf:about="">
        <dc:format>image/svg+xml</dc:format>
        <dc:type
           rdf:resource="http://purl.org/dc/dcmitype/StillImage" />
        <dc:title />
      </cc:Work>
    </rdf:RDF>
  </metadata>
  <g
     id="layer11"
     inkscape:groupmode="layer"
     inkscape:label="Clouds"
     transform="translate(0,-232.83333)">
    <g
       id="g4876"
       transform="matrix(1.2134662,0,0,1.2797346,-20.849178,220.19846)"
       style="fill:#85898a;fill-opacity:1">
      <path
         style="opacity:0.98000004;fill:#85898a;fill-opacity:1;stroke:none;stroke-width:1.10000002;stroke-linecap:square;stroke-linejoin:bevel;stroke-miterlimit:4;stroke-dasharray:none;stroke-opacity:1;paint-order:markers fill stroke"
         d="m 80.130702,12.850647 c -3.117137,0.0019 -6.375122,1.133558 -8.348696,3.499566 -4.27458,-3.794904 -12.016809,-1.815684 -13.782509,3.452253 -1.910905,-4.301878 -8.609088,-5.361226 -11.482474,-1.364418 -5.782516,-0.607882 -14.364522,-0.562745 -17.002706,5.325118 -1.133416,3.051908 4.739265,3.9135 3.765365,5.68109 -3.876874,5.597354 2.751502,11.850362 8.731307,12.008784 3.123601,0.696256 6.397941,-1.611406 8.394016,1.468659 3.16048,2.768028 7.799043,-0.721214 10.051894,2.875469 4.375637,3.179583 10.877187,0.724415 12.921773,-3.825187 7.087378,2.414301 16.589873,2.370593 22.020796,-3.20994 0.718654,-1.354597 0.773154,-2.234664 2.008058,-0.782415 3.523864,1.988972 8.965454,1.950029 11.730194,-1.201871 2.37914,-2.624092 -3.05392,-4.584318 -2.92436,-5.30157 3.39181,-1.892521 1.62389,-6.527576 -1.83696,-7.167771 -2.14518,-1.513583 -1.5377,-5.957246 -4.417991,-7.701042 -3.330845,-3.485454 -9.205354,-4.447898 -13.495768,-2.022968 -1.860696,-1.171589 -4.10905,-1.732214 -6.331939,-1.733757 z"
         id="path4836"
         inkscape:connector-curvature="0" />
    </g>
  </g>
</svg>
