<?xml version="1.0" encoding="UTF-8" standalone="no"?>
<svg
   xmlns:dc="http://purl.org/dc/elements/1.1/"
   xmlns:cc="http://creativecommons.org/ns#"
   xmlns:rdf="http://www.w3.org/1999/02/22-rdf-syntax-ns#"
   xmlns:svg="http://www.w3.org/2000/svg"
   xmlns="http://www.w3.org/2000/svg"
   xmlns:xlink="http://www.w3.org/1999/xlink"
   xmlns:sodipodi="http://sodipodi.sourceforge.net/DTD/sodipodi-0.dtd"
   xmlns:inkscape="http://www.inkscape.org/namespaces/inkscape"
   height="1080"
   id="svg8"
   version="1.1"
   viewBox="0 0 508 285.75001"
   width="1920"
   sodipodi:docname="Middle.svg"
   inkscape:export-filename="D:\WALLPAPER\desert vector.png"
   inkscape:export-xdpi="69"
   inkscape:export-ydpi="69"
   inkscape:version="0.92.5 (2060ec1f9f, 2020-04-08)">
  <defs
     id="defs2">
    <linearGradient
       id="linearGradient1039"
       inkscape:collect="always">
      <stop
         id="stop1035"
         offset="0"
         style="stop-color:#fdcd8b;stop-opacity:0.608" />
      <stop
         id="stop1037"
         offset="1"
         style="stop-color:#efa580;stop-opacity:0.60568627" />
    </linearGradient>
    <linearGradient
       id="linearGradient1023"
       inkscape:collect="always">
      <stop
         id="stop1019"
         offset="0"
         style="stop-color:#bf4955;stop-opacity:1" />
      <stop
         id="stop1021"
         offset="1"
         style="stop-color:#f37857;stop-opacity:1" />
    </linearGradient>
    <linearGradient
       id="linearGradient1009"
       inkscape:collect="always">
      <stop
         id="stop1005"
         offset="0"
         style="stop-color:#bf4955;stop-opacity:1" />
      <stop
         id="stop1007"
         offset="1"
         style="stop-color:#f37857;stop-opacity:1" />
    </linearGradient>
    <linearGradient
       id="linearGradient5043"
       inkscape:collect="always">
      <stop
         id="stop5041"
         offset="0"
         style="stop-color:#270134;stop-opacity:1" />
      <stop
         id="stop5039"
         offset="1"
         style="stop-color:#ffeb90;stop-opacity:1" />
    </linearGradient>
    <linearGradient
       gradientUnits="userSpaceOnUse"
       id="linearGradient5045"
       x1="253.18808"
       x2="253.18808"
       y1="-2.53424"
       y2="169.90585"
       inkscape:collect="always"
       xlink:href="#linearGradient5043" />
    <linearGradient
       gradientUnits="userSpaceOnUse"
       id="linearGradient1011"
       x1="498.92859"
       x2="378.73215"
       y1="55.184521"
       y2="122.46429"
       inkscape:collect="always"
       xlink:href="#linearGradient1009" />
    <linearGradient
       gradientUnits="userSpaceOnUse"
       id="linearGradient1025"
       x1="24.190477"
       x2="132.29167"
       y1="68.791664"
       y2="117.92857"
       inkscape:collect="always"
       xlink:href="#linearGradient1023" />
    <linearGradient
       gradientUnits="userSpaceOnUse"
       id="linearGradient1041"
       x1="255.51192"
       x2="255.5119"
       y1="29.482143"
       y2="156.48215"
       inkscape:collect="always"
       xlink:href="#linearGradient1039" />
    <linearGradient
       gradientTransform="matrix(1.2620455,0,0,1.2620455,-66.559548,-27.733148)"
       gradientUnits="userSpaceOnUse"
       id="linearGradient1053"
       x1="255.51192"
       x2="255.5119"
       y1="29.482143"
       y2="156.48215"
       inkscape:collect="always"
       xlink:href="#linearGradient1039" />
    <linearGradient
       gradientTransform="matrix(1.5561632,0,0,1.5561632,-141.26543,-58.860603)"
       gradientUnits="userSpaceOnUse"
       id="linearGradient1059"
       x1="255.51192"
       x2="255.5119"
       y1="29.482143"
       y2="156.48215"
       inkscape:collect="always"
       xlink:href="#linearGradient1039" />
  </defs>
  <sodipodi:namedview
     bordercolor="#000000"
     borderlayer="true"
     borderopacity="1"
     id="base"
     pagecolor="#ffffff"
     showgrid="false"
     showguides="false"
     units="px"
     inkscape:current-layer="layer4"
     inkscape:cx="348.54059"
     inkscape:cy="473.05373"
     inkscape:document-units="mm"
     inkscape:pageopacity="0.0"
     inkscape:pageshadow="2"
     inkscape:showpageshadow="false"
     inkscape:snap-global="false"
     inkscape:window-height="740"
     inkscape:window-maximized="1"
     inkscape:window-width="1366"
     inkscape:window-x="0"
     inkscape:window-y="0"
     inkscape:zoom="0.175">
    <sodipodi:guide
       id="guide4560"
       orientation="1,0"
       position="-79.375,40.82143"
       inkscape:locked="false" />
  </sodipodi:namedview>
  <metadata
     id="metadata5">
    <rdf:RDF>
      <cc:Work
         rdf:about="">
        <dc:format>image/svg+xml</dc:format>
        <dc:type
           rdf:resource="http://purl.org/dc/dcmitype/StillImage" />
        <dc:title />
      </cc:Work>
    </rdf:RDF>
  </metadata>
  <g
     id="layer4"
     inkscape:groupmode="layer"
     inkscape:label="Middle">
    <path
       style="opacity:1;fill:#90234a;fill-opacity:1;stroke:none;stroke-width:0.99999994px;stroke-linecap:butt;stroke-linejoin:miter;stroke-opacity:1"
       d="M 1458.9961 368.59766 C 1447.5454 368.59766 1438.3262 377.81689 1438.3262 389.26758 L 1438.3262 421.58984 C 1432.7262 422.05644 1426.216 422.23704 1424.9609 420.6543 C 1422.6927 417.79387 1424.9609 398.82813 1424.9609 398.82812 C 1424.9609 394.7975 1421.7162 391.55273 1417.6855 391.55273 C 1413.6549 391.55273 1410.4102 394.7975 1410.4102 398.82812 L 1410.4102 427.92969 C 1410.4102 431.96033 1413.9962 433.85564 1418.0234 434.02148 L 1438.3262 434.85742 L 1438.3262 466.26562 C 1426.1415 466.48649 1408.1047 466.47112 1405.0215 464.50586 C 1400.3111 461.50344 1404.0449 430.19922 1404.0449 430.19922 C 1404.0449 426.23593 1399.9771 423.04492 1394.9238 423.04492 C 1389.8706 423.04492 1385.7284 426.23657 1385.8027 430.19922 L 1386.5352 469.21875 C 1386.6096 473.18136 1393.0439 478.93709 1398.0957 479.05664 L 1438.3262 480.00977 L 1438.3262 520.4375 C 1438.3262 522.33614 1438.5836 524.17197 1439.0586 525.91602 C 1418.9357 535.23826 1399.815 546.49396 1372.9414 558.45898 A 16.667516 19.697974 0 0 0 1361.1797 552.70117 A 16.667516 19.697974 0 0 0 1346.1914 563.8418 A 41.416254 33.335032 0 0 0 1324.3105 558.76172 A 41.416254 33.335032 0 0 0 1288.4746 575.44336 A 19.697974 17.677669 0 0 0 1278.3477 572.9043 A 19.697974 17.677669 0 0 0 1258.6504 590.58203 A 19.697974 17.677669 0 0 0 1259.4199 595.45117 C 1223.1752 604.03466 1178.7146 612.36142 1122.8574 620 C 989.75943 638.20144 910.88868 636.10879 858.7168 626.10547 A 20.708127 17.677669 0 0 0 859.64062 620.88477 A 20.708127 17.677669 0 0 0 838.93164 603.20703 A 20.708127 17.677669 0 0 0 822.24609 610.44727 A 9.0913721 15.152288 0 0 0 813.17188 596.13672 A 9.0913721 15.152288 0 0 0 804.125 609.83203 C 783.69523 601.17866 768.54883 591.61412 752.91602 583.72266 C 753.34058 582.6803 753.57813 581.54222 753.57812 580.34375 L 753.57812 554.00781 L 761.88867 553.81445 C 763.53001 553.7762 764.66835 551.00507 764.67969 549.36328 L 764.79492 531.36328 C 764.80535 529.72153 763.87421 528.3418 762.23242 528.3418 C 760.59063 528.3418 759.26758 529.66489 759.26758 531.30664 C 759.26758 531.30664 759.7932 546.10338 758.41016 547.6582 C 757.96484 548.15882 755.98401 548.31852 753.57812 548.33008 L 753.57812 523.67188 C 753.57812 518.72481 749.5955 514.74219 744.64844 514.74219 C 739.70138 514.74219 735.71875 518.72481 735.71875 523.67188 L 735.71875 537.63086 C 733.28784 537.83578 730.49153 537.92122 729.94531 537.23242 C 728.96539 535.99663 729.94531 527.80273 729.94531 527.80273 C 729.94531 526.06139 728.54216 524.66016 726.80078 524.66016 C 725.0594 524.66016 723.6582 526.06139 723.6582 527.80273 L 723.6582 540.37695 C 723.6582 542.11829 725.20736 542.93615 726.94727 543.00781 L 735.71875 543.36914 L 735.71875 556.92383 C 730.45538 557.02262 722.67719 557.03638 721.33008 556.17773 C 719.29503 554.88056 720.9082 541.35742 720.9082 541.35742 C 720.9082 539.64514 719.15188 538.26563 716.96875 538.26562 C 714.78558 538.26562 712.99522 539.64545 713.02734 541.35742 L 713.34375 558.21484 C 713.37399 559.92682 716.15533 562.41318 718.33789 562.46484 L 735.71875 562.87695 L 735.71875 576.02344 C 728.02825 573.10438 719.79181 570.73711 710.44727 569.17969 C 688.67802 565.55148 669.1584 568.03439 650.13281 574.47656 L 650.13281 553.85352 L 680.76953 553.12891 C 684.61679 553.03786 689.51753 548.65448 689.57422 545.63672 L 690.13281 515.92188 C 690.18943 512.90407 687.03386 510.47266 683.18555 510.47266 C 679.33723 510.47266 676.24023 512.90354 676.24023 515.92188 C 676.24023 515.92188 679.08332 539.76037 675.49609 542.04688 C 673.14799 543.54353 659.41211 543.55688 650.13281 543.38867 L 650.13281 519.46875 L 665.59375 518.83203 C 668.66072 518.70576 671.39258 517.2629 671.39258 514.19336 L 671.39258 492.0293 C 671.39258 488.95972 668.92114 486.49023 665.85156 486.49023 C 662.78202 486.49023 660.31055 488.95972 660.31055 492.0293 C 660.31055 492.0293 662.0379 506.47398 660.31055 508.65234 C 659.35469 509.85775 654.39768 509.72062 650.13281 509.36523 L 650.13281 484.75 C 650.13281 476.02965 643.11292 469.00781 634.39258 469.00781 C 625.67223 469.00781 618.65039 476.02965 618.65039 484.75 L 618.65039 528.24219 C 614.3708 528.22553 610.92487 527.91946 610.13477 527.03125 C 607.69682 524.29056 608.62109 498.20508 608.62109 498.20508 C 608.62109 495.31106 606.29051 492.98047 603.39648 492.98047 C 600.50246 492.98047 598.8605 495.4107 598.87891 498.30469 L 599.08203 530.03516 C 599.10093 532.92914 601.10869 537.81542 604.00195 537.88281 L 618.65039 538.22461 L 618.65039 584.64258 C 618.65039 585.88702 618.80766 587.09222 619.07812 588.25195 C 602.55635 597.07239 585.6348 608.03738 567.26562 619.69727 A 17.677669 27.274118 0 0 0 552.04883 606.23828 A 17.677669 27.274118 0 0 0 535.41797 624.35938 A 13.131983 12.121831 0 0 0 530.33008 623.41016 A 13.131983 12.121831 0 0 0 517.37695 633.62891 A 20.708127 28.284271 0 0 0 515.68359 633.51172 A 20.708127 28.284271 0 0 0 494.99609 661.23047 C 481.34709 667.88852 466.74121 674.23835 450.9375 680 C 307.18402 732.40901 232.00335 603.26342 106.28906 600.40625 C 99.777629 600.25826 93.539771 600.27799 87.537109 600.43359 A 26.263965 11.111678 0 0 0 61.619141 591.08594 A 26.263965 11.111678 0 0 0 37.080078 598.27344 A 17.677669 9.5964485 0 0 0 28.789062 597.14648 A 17.677669 9.5964485 0 0 0 11.111328 606.74414 A 17.677669 9.5964485 0 0 0 13.880859 611.89648 C -34.93289 627.75996 -48.572266 654.28516 -48.572266 654.28516 L -97.142578 1111.4277 L 2028.5723 1128.5723 L 2034.2852 460 C 2034.2852 460 2027.3197 510.47374 1950.9043 543.5 A 55.053311 34.345186 0 0 0 1901.6113 524.41602 A 55.053311 34.345186 0 0 0 1848.2871 550.39648 A 27.274118 23.233509 0 0 0 1835.4473 547.65039 A 27.274118 23.233509 0 0 0 1808.2891 568.89453 C 1720.309 562.4365 1721.8663 498.69225 1567.7949 501.09961 C 1529.0636 501.70478 1501.7955 505.3466 1479.6641 511.13086 L 1479.6641 459.48438 L 1498.9004 459.03516 C 1502.6995 458.94664 1505.3387 452.53056 1505.3613 448.73047 L 1505.627 407.06641 C 1505.6511 403.26636 1503.4955 400.07617 1499.6953 400.07617 C 1495.8952 400.07617 1492.8359 403.13542 1492.8359 406.93555 C 1492.8359 406.93555 1494.0489 441.18832 1490.8477 444.78711 C 1489.8101 445.95355 1485.2844 446.35711 1479.6641 446.37891 L 1479.6641 389.26758 C 1479.6641 377.81689 1470.4468 368.59766 1458.9961 368.59766 z "
       transform="scale(0.26458333)"
       id="path851" />
  </g>
</svg>
