<?xml version="1.0" encoding="UTF-8" standalone="no"?>
<svg
   xmlns:dc="http://purl.org/dc/elements/1.1/"
   xmlns:cc="http://creativecommons.org/ns#"
   xmlns:rdf="http://www.w3.org/1999/02/22-rdf-syntax-ns#"
   xmlns:svg="http://www.w3.org/2000/svg"
   xmlns="http://www.w3.org/2000/svg"
   xmlns:xlink="http://www.w3.org/1999/xlink"
   xmlns:sodipodi="http://sodipodi.sourceforge.net/DTD/sodipodi-0.dtd"
   xmlns:inkscape="http://www.inkscape.org/namespaces/inkscape"
   height="1080"
   id="svg8"
   version="1.1"
   viewBox="0 0 508 285.75001"
   width="1920"
   sodipodi:docname="Mountains.svg"
   inkscape:export-filename="D:\WALLPAPER\desert vector.png"
   inkscape:export-xdpi="69"
   inkscape:export-ydpi="69"
   inkscape:version="0.92.5 (2060ec1f9f, 2020-04-08)">
  <defs
     id="defs2">
    <linearGradient
       inkscape:collect="always"
       id="linearGradient840">
      <stop
         style="stop-color:#f897b6;stop-opacity:1"
         offset="0"
         id="stop836" />
      <stop
         style="stop-color:#f8c5b6;stop-opacity:1"
         offset="1"
         id="stop838" />
    </linearGradient>
    <linearGradient
       inkscape:collect="always"
       id="linearGradient824">
      <stop
         style="stop-color:#f897b6;stop-opacity:1"
         offset="0"
         id="stop820" />
      <stop
         style="stop-color:#f8c5b6;stop-opacity:1"
         offset="1"
         id="stop822" />
    </linearGradient>
    <linearGradient
       id="linearGradient5043"
       inkscape:collect="always">
      <stop
         id="stop5041"
         offset="0"
         style="stop-color:#ecbca4;stop-opacity:1" />
      <stop
         id="stop5039"
         offset="1"
         style="stop-color:#feffeb;stop-opacity:1;" />
    </linearGradient>
    <linearGradient
       gradientUnits="userSpaceOnUse"
       id="linearGradient5045"
       x1="250.16428"
       x2="250.16428"
       y1="3.5133791"
       y2="282.54276"
       inkscape:collect="always"
       xlink:href="#linearGradient5043" />
    <linearGradient
       inkscape:collect="always"
       xlink:href="#linearGradient824"
       id="linearGradient826"
       x1="7.5595241"
       y1="107.34524"
       x2="133.04762"
       y2="143.63095"
       gradientUnits="userSpaceOnUse" />
    <linearGradient
       inkscape:collect="always"
       xlink:href="#linearGradient840"
       id="linearGradient842"
       x1="488.34525"
       y1="69.547615"
       x2="385.53571"
       y2="108.85714"
       gradientUnits="userSpaceOnUse" />
  </defs>
  <sodipodi:namedview
     bordercolor="#000000"
     borderlayer="true"
     borderopacity="1"
     id="base"
     pagecolor="#ffffff"
     showgrid="false"
     showguides="false"
     units="px"
     inkscape:current-layer="layer10"
     inkscape:cx="1341.1018"
     inkscape:cy="790.64409"
     inkscape:document-units="mm"
     inkscape:pageopacity="0.0"
     inkscape:pageshadow="2"
     inkscape:showpageshadow="false"
     inkscape:snap-global="false"
     inkscape:window-height="740"
     inkscape:window-maximized="1"
     inkscape:window-width="1366"
     inkscape:window-x="0"
     inkscape:window-y="0"
     inkscape:zoom="0.175">
    <sodipodi:guide
       id="guide4560"
       orientation="1,0"
       position="-79.375,40.82143"
       inkscape:locked="false" />
  </sodipodi:namedview>
  <metadata
     id="metadata5">
    <rdf:RDF>
      <cc:Work
         rdf:about="">
        <dc:format>image/svg+xml</dc:format>
        <dc:type
           rdf:resource="http://purl.org/dc/dcmitype/StillImage" />
        <dc:title />
      </cc:Work>
    </rdf:RDF>
  </metadata>
  <g
     id="layer10"
     inkscape:groupmode="layer"
     inkscape:label="Mountains">
    <path
       d="M -5.2916661,151.56846 9.8273809,48.002975 13.607143,41.57738 l 3.779762,-3.023809 6.047619,-4.157738 6.047619,0.377976 5.669644,1.889881 v 2.267857 l 2.267857,2.645833 1.889879,2.267857 2.645834,3.779762 -1.88988,5.669643 v 3.779763 l 2.267855,4.913688 0.755955,6.047621 -1.511906,6.425594 0.755951,6.047618 4.913691,5.669645 6.047621,4.157737 5.291667,-0.755952 -0.755955,-7.9375 -1.889879,-8.693451 1.511904,-13.985121 4.535714,-1.889879 6.047619,1.133927 0.755951,7.9375 3.401788,3.02381 3.401785,1.13393 v 5.291666 l 3.401785,4.157737 1.889881,3.401785 0.377976,6.425596 7.181548,-0.755951 0.377976,-4.15774 2.267858,-3.401784 1.133927,-6.803573 h 4.157739 c 0,0 1.889882,-0.377976 2.645834,1.511906 0.755951,1.889879 6.047618,5.291667 6.047618,5.291667 l 3.40178,1.889879 3.40179,6.425596 4.53571,1.511904 1.88988,-1.511904 0.75596,-21.166666 v -9.07143 l -2.64584,-13.985118 c 0,0 -3.02381,-6.047619 1.13393,-6.047619 4.15773,0 3.77975,1.889881 3.77975,1.889881 l 0.37798,5.291668 2.64583,5.291666 4.53572,2.645834 -0.37798,4.535712 v 7.559524 l 1.51191,2.267858 v 3.401785 l 0.37797,4.535715 3.02382,12.473215 c 0,0 -1.5119,11.717259 0,11.717259 1.51191,0 4.53572,-1.889878 4.53572,-1.889878 l 7.55952,0.755952 -0.37798,4.157736 1.13393,6.4256 h 4.53572 v 3.02381 l 4.15774,2.64583 1.13392,4.53572 1.51191,3.02381 c 0,0 3.40178,1.5119 3.40178,3.02381 0,1.5119 -0.75595,11.33928 -0.75595,11.33928 v 2.26786 l -9.4494,16.25298 -155.7261901,12.85119 z"
       id="path4823"
       style="fill:url(#linearGradient826);stroke:none;stroke-width:0.26458332px;stroke-linecap:butt;stroke-linejoin:miter;stroke-opacity:1;fill-opacity:1"
       inkscape:connector-curvature="0" />
    <path
       d="M 151.56845,99.407738 Z"
       id="path4827"
       style="fill:none;stroke:#000000;stroke-width:0.26458332px;stroke-linecap:butt;stroke-linejoin:miter;stroke-opacity:1"
       inkscape:connector-curvature="0" />
    <path
       d="m 356.53755,114.16296 10.15624,-9.08716 10.15624,-9.621704 v -7.483547 l 4.81084,-3.207234 7.48356,0.534538 12.29439,-4.276312 5.3454,-6.949009 12.82893,-1.069078 6.94902,6.949009 4.81084,-0.534538 3.20723,-5.879931 8.01809,-2.672696 c 0,0 1.60361,-3.207234 0.53454,-5.34539 3.82398,-2.397884 23.66772,-7.122587 23.66772,-7.122587 l 1.99016,-15.328052 4.27631,-11.759859 4.23833,-2.397558 4.40602,-2.829258 0.44282,-6.533043 9.08716,-4.810852 3.74177,12.294398 c 0,0 2.30585,11.748733 4.97855,12.817811 2.67269,1.069078 5.1777,2.149283 5.1777,2.149283 v 9.621703 l -1.06908,17.10525 6.41447,7.483546 5.34539,20.312485 -82.31902,28.865105 -84.45717,-1.06907 z"
       id="path4833"
       style="fill:url(#linearGradient842);fill-opacity:1;stroke:none;stroke-width:0.26458332px;stroke-linecap:butt;stroke-linejoin:miter;stroke-opacity:1"
       sodipodi:nodetypes="ccccccccccccccccccccccccccccccc"
       inkscape:connector-curvature="0" />
  </g>
</svg>
