<?xml version="1.0" encoding="UTF-8" standalone="no"?>
<svg
   xmlns:dc="http://purl.org/dc/elements/1.1/"
   xmlns:cc="http://creativecommons.org/ns#"
   xmlns:rdf="http://www.w3.org/1999/02/22-rdf-syntax-ns#"
   xmlns:svg="http://www.w3.org/2000/svg"
   xmlns="http://www.w3.org/2000/svg"
   xmlns:xlink="http://www.w3.org/1999/xlink"
   xmlns:sodipodi="http://sodipodi.sourceforge.net/DTD/sodipodi-0.dtd"
   xmlns:inkscape="http://www.inkscape.org/namespaces/inkscape"
   height="100%"
   id="svg8"
   version="1.1"
   viewBox="0 0 508 285.75001"
   width="100%"
   sodipodi:docname="Back.svg"
   inkscape:export-filename="D:\WALLPAPER\desert vector.png"
   inkscape:export-xdpi="69"
   inkscape:export-ydpi="69"
   inkscape:version="0.92.4 (5da689c313, 2019-01-14)">
  <defs
     id="defs2">
    <linearGradient
       id="linearGradient5043"
       inkscape:collect="always">
      <stop
         id="stop5041"
         offset="0"
         style="stop-color:#ecbca4;stop-opacity:1" />
      <stop
         id="stop5039"
         offset="1"
         style="stop-color:#feffeb;stop-opacity:1;" />
    </linearGradient>
    <linearGradient
       gradientUnits="userSpaceOnUse"
       id="linearGradient5045"
       x1="250.16428"
       x2="250.16428"
       y1="3.5133791"
       y2="282.54276"
       inkscape:collect="always"
       xlink:href="#linearGradient5043" />
  </defs>
  <sodipodi:namedview
     bordercolor="#000000"
     borderlayer="true"
     borderopacity="1"
     id="base"
     pagecolor="#ffffff"
     showgrid="false"
     showguides="false"
     units="px"
     inkscape:current-layer="g4607"
     inkscape:cx="183.19445"
     inkscape:cy="121.5668"
     inkscape:document-units="mm"
     inkscape:pageopacity="0.0"
     inkscape:pageshadow="2"
     inkscape:showpageshadow="false"
     inkscape:snap-global="true"
     inkscape:window-height="705"
     inkscape:window-maximized="1"
     inkscape:window-width="1366"
     inkscape:window-x="-8"
     inkscape:window-y="-8"
     inkscape:zoom="0.98994948">
    <sodipodi:guide
       id="guide4560"
       orientation="1,0"
       position="-79.375,40.82143"
       inkscape:locked="false" />
  </sodipodi:namedview>
  <metadata
     id="metadata5">
    <rdf:RDF>
      <cc:Work
         rdf:about="">
        <dc:format>image/svg+xml</dc:format>
        <dc:type
           rdf:resource="http://purl.org/dc/dcmitype/StillImage" />
        <dc:title />
      </cc:Work>
    </rdf:RDF>
  </metadata>
  <g
     id="layer6"
     style="opacity:1"
     inkscape:groupmode="layer"
     inkscape:label="Back">
    <g
       id="g4607">
      <path
         inkscape:connector-curvature="0"
         style="opacity:1;fill:#ffb774;fill-opacity:1;stroke:none;stroke-width:0.2646313px;stroke-linecap:butt;stroke-linejoin:miter;stroke-opacity:1"
         d="m 471.90043,76.764835 c -2.10485,0 -3.79967,1.974207 -3.79967,4.426288 v 6.922194 c -1.0293,0.09994 -2.22586,0.137838 -2.4566,-0.201096 -0.41692,-0.612532 0,-4.673901 0,-4.673901 0,-0.863143 -0.59644,-1.558148 -1.3373,-1.558148 -0.74094,0 -1.33737,0.695005 -1.33737,1.558148 v 6.23205 c 0,0.863132 0.65911,1.268799 1.39934,1.3043 l 3.73193,0.179405 v 6.725743 c -2.23976,0.04736 -5.55515,0.04395 -6.12183,-0.376866 -0.86594,-0.642945 -0.17941,-7.346634 -0.17941,-7.346634 0,-0.84872 -0.74794,-1.531777 -1.67678,-1.531777 -0.92892,0 -1.69005,0.683204 -1.67634,1.531777 l 0.13432,8.355759 c 0.0141,0.848561 1.19681,2.081033 2.12541,2.106633 l 7.39463,0.20421 v 7.45985 c -2.17999,0.4597 -4.69316,0.95615 -7.49644,1.46406 a 3.0735013,3.4090306 0 0 0 -3.05708,-3.08993 3.0735013,3.4090306 0 0 0 -3.0736,3.4089 3.0735013,3.4090306 0 0 0 0.0723,0.71599 c -2.47621,0.39714 -5.12069,0.78935 -7.90679,1.16576 a 7.8842001,5.8154052 0 0 0 -7.66643,-4.48883 7.8842001,5.8154052 0 0 0 -7.1575,3.39182 2.9398711,3.8769367 0 0 0 -2.06284,-1.11923 2.9398711,3.8769367 0 0 0 -2.94029,3.87727 2.9398711,3.8769367 0 0 0 0.0203,0.40891 c -2.71714,0.20203 -5.50101,0.37778 -8.35584,0.51594 a 3.474393,2.1389996 0 0 0 -3.2901,-1.45992 3.474393,2.1389996 0 0 0 -3.4023,1.70858 c -16.36124,0.44419 -34.48327,-0.35027 -52.84366,-3.53658 -14.92048,-2.58933 -29.38963,-0.57706 -41.35276,2.7482 v -4.11713 l 2.19824,-0.0512 c 0.43426,-0.0102 0.73601,-0.74362 0.739,-1.17816 l 0.0299,-4.76438 c 0,-0.43455 -0.24366,-0.79975 -0.67796,-0.79975 -0.43441,0 -0.78395,0.34967 -0.78395,0.78424 0,0 0.1386,3.91703 -0.22736,4.32857 -0.11777,0.13248 -0.6416,0.17475 -1.27793,0.17785 v -6.52674 c 0,-1.30942 -1.05372,-2.363571 -2.36258,-2.363571 -1.30885,0 -2.36254,1.054151 -2.36254,2.363571 v 3.69426 c -0.64329,0.0543 -1.38347,0.0774 -1.52803,-0.10494 -0.25926,-0.3271 0,-2.49593 0,-2.49593 0,-0.46091 -0.37072,-0.8318 -0.83143,-0.8318 -0.46075,0 -0.83201,0.37089 -0.83201,0.8318 v 3.32773 c 0,0.46092 0.40993,0.67791 0.87024,0.69688 l 2.32123,0.0956 v 3.58776 c -1.39257,0.0261 -3.45046,0.0297 -3.80684,-0.19749 -0.53849,-0.34332 -0.11163,-3.92275 -0.11163,-3.92275 0,-0.45322 -0.4652,-0.81835 -1.04279,-0.81835 -0.57768,0 -1.0513,0.36521 -1.04282,0.81835 l 0.0837,4.46195 c 0.009,0.45316 0.74438,1.11125 1.32184,1.12492 l 4.59851,0.10903 v 3.18712 c -2.21658,0.71387 -4.31909,1.46105 -6.3033,2.21726 a 3.2739474,3.4090306 0 0 0 -2.95421,-1.94793 3.2739474,3.4090306 0 0 0 -2.98991,2.02704 5.8584439,5.4828161 0 0 0 -3.34957,-0.9869 5.8584439,5.4828161 0 0 0 -5.80409,4.77679 4.8190428,4.726566 0 0 0 -2.13311,3.92017 4.8190428,4.726566 0 0 0 0.0114,0.29829 c -1.10828,0.64097 -1.71196,1.02514 -1.71196,1.02514 0,0 -34.01709,24.47133 -80.8845,15.88127 -49.5133,-9.07501 -49.89096,-27.22503 -81.63996,-26.46877 -17.93845,0.42728 -20.79847,4.83855 -29.024173,10.23184 a 3.4961683,2.1742205 0 0 0 -1.496504,-0.21198 3.4961683,2.1742205 0 0 0 -3.495793,2.16869 3.401677,3.875784 0 0 0 -1.890268,-0.65603 3.401677,3.875784 0 0 0 -3.401751,3.87571 3.401677,3.875784 0 0 0 0.0071,0.2285 c -3.810857,1.57917 -8.535903,3.15946 -14.602262,4.67804 v -2.6081 l 3.534553,-0.0976 c 0.443858,-0.0122 1.009429,-0.60147 1.015924,-1.00707 l 0.06408,-3.99357 c 0.0066,-0.4056 -0.357492,-0.73255 -0.801477,-0.73255 -0.44398,0 -0.801477,0.32688 -0.801477,0.73255 0,0 0.328601,3.20394 -0.08526,3.51124 -0.273943,0.20341 -1.85596,0.2002 -2.926348,0.1768 v -3.21139 l 1.783812,-0.0858 c 0.353835,-0.017 0.668675,-0.2109 0.668675,-0.62345 v -2.97878 c 6e-6,-0.41255 -0.285087,-0.74442 -0.639216,-0.74442 -0.354135,0 -0.639217,0.33187 -0.639217,0.74442 0,0 0.199284,1.94157 0,2.23434 -0.111081,0.16319 -0.679697,0.14264 -1.174054,0.0941 v -3.30652 c 0,-1.17204 -0.809788,-2.11595 -1.815848,-2.11595 -1.006061,0 -1.816372,0.94391 -1.816372,2.11595 v 5.84173 c -0.489208,-0.002 -0.891784,-0.0407 -0.98234,-0.15921 -0.281263,-0.36836 -0.174658,-3.87417 -0.174658,-3.87417 0,-0.38895 -0.268649,-0.70256 -0.602527,-0.70256 -0.333884,0 -0.523521,0.32704 -0.521406,0.71601 l 0.02333,4.26447 c 0.0017,0.38895 0.234108,1.04556 0.567903,1.05461 l 1.689765,0.046 v 5.57292 c -2.847102,0.64426 -5.95078,1.27535 -9.363988,1.88693 -4.110166,0.73647 -8.058173,1.28563 -11.848511,1.6786 a 1.8898206,1.5597667 0 0 0 0.03724,-0.30811 1.8898206,1.5597667 0 0 0 -1.889678,-1.5597 1.8898206,1.5597667 0 0 0 -1.576089,0.70101 3.826887,3.5921901 0 0 0 -2.912388,-1.26812 3.826887,3.5921901 0 0 0 -3.792927,3.14005 c -2.485313,0.0848 -4.884979,0.0983 -7.206056,0.0543 v -15.23248 l 3.631707,-0.11529 c 0.717277,-0.0227 1.215442,-1.6704 1.220045,-2.64636 l 0.05015,-10.70022 c 0.0045,-0.97595 -0.402843,-1.79593 -1.120303,-1.79593 -0.717465,0 -1.294972,0.78584 -1.294972,1.76182 0,0 0.229238,8.79679 -0.37516,9.72106 -0.19591,0.29962 -1.050192,0.40387 -2.111433,0.40946 v -14.66847 c 0,-2.94085 -1.740098,-5.30822 -3.90196,-5.30822 -2.161867,0 -3.902483,2.36737 -3.902483,5.30822 v 8.302 c -1.057215,0.11982 -2.286337,0.16555 -2.523275,-0.24092 -0.428236,-0.73462 0,-5.60548 0,-5.60548 0,-1.03519 -0.613058,-1.86833 -1.374033,-1.86833 -0.760979,0 -1.373514,0.83314 -1.373514,1.86833 v 7.47433 c 0,1.03518 0.677256,1.52175 1.437589,1.56434 l 3.833233,0.21455 v 8.06677 c -2.300437,0.0567 -5.705654,0.0529 -6.287785,-0.45184 -0.889317,-0.77108 -0.184481,-8.8112 -0.184481,-8.8112 0,-1.01789 -0.767761,-1.8373 -1.721803,-1.8373 -0.954045,0 -1.736353,0.81959 -1.722322,1.8373 l 0.138492,10.02144 c 0.014,1.01771 1.228966,2.49622 2.18274,2.52693 l 7.595159,0.24453 v 9.5789 c -6.37166,-0.51352 -11.9993628,-1.46936 -16.8736087,-2.62412 a 3.6851506,5.5773477 0 0 0 -3.67873538,-5.29271 3.6851506,5.5773477 0 0 0 -3.37436512,3.34374 C -13.434172,133.0932 -18.901101,129.18803 -18.901101,129.18803 l -49.135664,29.49355 -4.535501,173.93756 641.782756,0.75632 v -27.98141 c 0,0 -15.11828,-192.84391 -18.14195,-217.04392 -2.44979,-19.606992 -24.6834,-1.262609 -56.8082,11.65608 a 2.9398711,5.3474987 0 0 0 -2.77078,-3.575861 2.9398711,5.3474987 0 0 0 -2.93975,5.347511 2.9398711,5.3474987 0 0 0 0.009,0.41719 c -4.14771,1.51491 -8.4412,2.90397 -12.85984,4.08715 V 96.227686 l 3.53564,-0.09619 c 0.69832,-0.01897 1.18395,-1.393168 1.18802,-2.206931 l 0.0483,-8.921841 c 0.007,-0.813753 -0.39177,-1.49714 -1.09028,-1.49714 -0.69851,0 -1.26089,0.654938 -1.26089,1.468714 0,0 0.22309,7.33539 -0.36532,8.106055 -0.19071,0.249771 -1.02264,0.336004 -2.05567,0.340683 V 81.191123 c 0,-2.452081 -1.69429,-4.426276 -3.79905,-4.426288 z"
         id="path855-7" />
    </g>
  </g>
</svg>
