<?xml version="1.0" encoding="UTF-8" standalone="no"?>
<svg
   xmlns:dc="http://purl.org/dc/elements/1.1/"
   xmlns:cc="http://creativecommons.org/ns#"
   xmlns:rdf="http://www.w3.org/1999/02/22-rdf-syntax-ns#"
   xmlns:svg="http://www.w3.org/2000/svg"
   xmlns="http://www.w3.org/2000/svg"
   xmlns:xlink="http://www.w3.org/1999/xlink"
   xmlns:sodipodi="http://sodipodi.sourceforge.net/DTD/sodipodi-0.dtd"
   xmlns:inkscape="http://www.inkscape.org/namespaces/inkscape"
   height="100%"
   id="svg8"
   version="1.1"
   viewBox="0 0 508 285.75001"
   width="100%"
   sodipodi:docname="Back.svg"
   inkscape:export-filename="D:\WALLPAPER\desert vector.png"
   inkscape:export-xdpi="69"
   inkscape:export-ydpi="69"
   inkscape:version="0.92.5 (2060ec1f9f, 2020-04-08)">
  <defs
     id="defs2">
    <linearGradient
       id="linearGradient5043"
       inkscape:collect="always">
      <stop
         id="stop5041"
         offset="0"
         style="stop-color:#ecbca4;stop-opacity:1" />
      <stop
         id="stop5039"
         offset="1"
         style="stop-color:#feffeb;stop-opacity:1;" />
    </linearGradient>
    <linearGradient
       gradientUnits="userSpaceOnUse"
       id="linearGradient5045"
       x1="250.16428"
       x2="250.16428"
       y1="3.5133791"
       y2="282.54276"
       inkscape:collect="always"
       xlink:href="#linearGradient5043" />
  </defs>
  <sodipodi:namedview
     bordercolor="#000000"
     borderlayer="true"
     borderopacity="1"
     id="base"
     pagecolor="#ffffff"
     showgrid="false"
     showguides="false"
     units="px"
     inkscape:current-layer="g4607"
     inkscape:cx="26.246056"
     inkscape:cy="-21.377975"
     inkscape:document-units="mm"
     inkscape:pageopacity="0.0"
     inkscape:pageshadow="2"
     inkscape:showpageshadow="false"
     inkscape:snap-global="false"
     inkscape:window-height="740"
     inkscape:window-maximized="1"
     inkscape:window-width="1366"
     inkscape:window-x="0"
     inkscape:window-y="0"
     inkscape:zoom="0.69999999">
    <sodipodi:guide
       id="guide4560"
       orientation="1,0"
       position="-79.375,40.82143"
       inkscape:locked="false" />
  </sodipodi:namedview>
  <metadata
     id="metadata5">
    <rdf:RDF>
      <cc:Work
         rdf:about="">
        <dc:format>image/svg+xml</dc:format>
        <dc:type
           rdf:resource="http://purl.org/dc/dcmitype/StillImage" />
        <dc:title />
      </cc:Work>
    </rdf:RDF>
  </metadata>
  <g
     id="layer6"
     style="opacity:1"
     inkscape:groupmode="layer"
     inkscape:label="Back">
    <g
       id="g4607">
      <path
         style="fill:#ffb774;fill-opacity:1;stroke:none;stroke-width:0.26458332px;stroke-linecap:butt;stroke-linejoin:miter;stroke-opacity:1"
         d="M 471.91797 76.865234 C 469.81307 76.865234 468.11914 78.837948 468.11914 81.289062 L 468.11914 88.205078 C 467.08463 88.30668 465.89458 88.349198 465.66211 88.007812 C 465.24516 87.395516 465.66211 83.335937 465.66211 83.335938 C 465.66211 82.473142 465.06515 81.779297 464.32422 81.779297 C 463.5833 81.779297 462.98828 82.473142 462.98828 83.335938 L 462.98828 89.566406 C 462.98828 90.429198 463.64643 90.833642 464.38672 90.869141 L 468.11914 91.048828 L 468.11914 97.765625 C 465.87966 97.814565 462.57121 97.819958 461.99805 97.394531 C 461.13217 96.75184 461.81836 90.052734 461.81836 90.052734 C 461.81836 89.204351 461.06952 88.521484 460.14062 88.521484 C 459.21173 88.521484 458.45118 89.204495 458.46484 90.052734 L 458.59961 98.404297 C 458.61331 99.252531 459.79596 100.48418 460.72461 100.50977 L 468.11914 100.71484 L 468.11914 108.16406 C 449.07119 112.18485 404.76954 119.08021 358.95508 111.13281 C 344.03351 108.54438 329.56535 110.55859 317.60156 113.88281 L 317.60156 109.76367 L 319.79883 109.71289 C 320.2331 109.70278 320.53606 108.96954 320.53906 108.53516 L 320.56836 103.77344 C 320.57112 103.33906 320.32501 102.97266 319.89062 102.97266 C 319.45624 102.97266 319.10742 103.32342 319.10742 103.75781 C 319.10742 103.75781 319.24485 107.6726 318.87891 108.08398 C 318.76245 108.2149 318.22776 108.24791 317.60156 108.25195 L 317.60156 101.73828 C 317.60156 100.42937 316.54719 99.375 315.23828 99.375 C 313.92937 99.375 312.875 100.42937 312.875 101.73828 L 312.875 105.42969 C 312.21735 105.48842 311.49777 105.51547 311.34766 105.32617 C 311.08839 104.9992 311.34766 102.83008 311.34766 102.83008 C 311.34766 102.36934 310.97636 102 310.51562 102 C 310.05489 102 309.68555 102.36934 309.68555 102.83008 L 309.68555 106.1582 C 309.68555 106.61894 310.09435 106.83457 310.55469 106.85352 L 312.875 106.94922 L 312.875 110.53125 C 311.52522 110.56322 309.4583 110.58644 309.06836 110.33789 C 308.52992 109.99469 308.95703 106.41797 308.95703 106.41797 C 308.95703 105.96492 308.49169 105.59961 307.91406 105.59961 C 307.33643 105.59961 306.86259 105.965 306.87109 106.41797 L 306.95508 110.87695 C 306.96408 111.32992 307.69988 111.98828 308.27734 112.00195 L 312.875 112.10938 L 312.875 115.30273 C 310.66168 116.01547 308.55376 116.75879 306.57227 117.51367 A 3.2740516 3.4076864 0 0 0 303.61914 115.56641 A 3.2740516 3.4076864 0 0 0 300.62891 117.5918 A 5.8586306 5.4806541 0 0 0 297.27734 116.60547 A 5.8586306 5.4806541 0 0 0 291.47461 121.38086 A 4.8191961 4.7247023 0 0 0 289.33984 125.29883 A 4.8191961 4.7247023 0 0 0 289.35156 125.59961 C 288.25297 126.23501 287.64062 126.62109 287.64062 126.62109 C 287.64062 126.62109 253.62283 151.08277 206.75391 142.49609 C 157.23903 133.42466 156.85937 115.2831 125.10938 116.03906 C 107.16877 116.46622 104.31161 120.87577 96.083984 126.26758 A 3.4962796 2.1733632 0 0 0 94.587891 126.05469 A 3.4962796 2.1733632 0 0 0 91.091797 128.22266 A 3.4017855 3.8742558 0 0 0 89.203125 127.56641 A 3.4017855 3.8742558 0 0 0 85.800781 131.44141 A 3.4017855 3.8742558 0 0 0 85.806641 131.66797 C 81.996883 133.2463 77.269418 134.82395 71.205078 136.3418 L 71.205078 133.73828 L 74.740234 133.64062 C 75.184104 133.6284 75.749359 133.0402 75.755859 132.63477 L 75.820312 128.64258 C 75.826843 128.23714 75.461571 127.91016 75.017578 127.91016 C 74.573586 127.91016 74.216797 128.23707 74.216797 128.64258 C 74.216797 128.64258 74.54473 131.84515 74.130859 132.15234 C 73.831082 132.37485 72.242464 132.35284 71.205078 132.32422 L 71.205078 129.11914 L 72.988281 129.0332 C 73.342126 129.01623 73.658203 128.82255 73.658203 128.41016 L 73.658203 125.43164 C 73.658203 125.01924 73.371722 124.6875 73.017578 124.6875 C 72.663432 124.6875 72.378906 125.01924 72.378906 125.43164 C 72.378906 125.43164 72.578198 127.37336 72.378906 127.66602 C 72.26342 127.83561 71.710827 127.81048 71.205078 127.75781 L 71.205078 124.45508 C 71.205078 123.2835 70.394764 122.33984 69.388672 122.33984 C 68.382579 122.33984 67.572266 123.2835 67.572266 124.45508 L 67.572266 130.28516 C 67.090589 130.28158 66.679404 130.25201 66.589844 130.13477 C 66.30857 129.76656 66.416016 126.26172 66.416016 126.26172 C 66.416016 125.87291 66.146393 125.56055 65.8125 125.56055 C 65.478607 125.56055 65.288893 125.88658 65.291016 126.27539 L 65.314453 130.53906 C 65.316553 130.92786 65.549009 131.58275 65.882812 131.5918 L 67.572266 131.63867 L 67.572266 137.20508 C 64.721362 137.85017 61.627763 138.48338 58.208984 139.0957 C 54.094077 139.8327 50.155678 140.36687 46.361328 140.75977 A 1.8898809 1.5591518 0 0 0 46.396484 140.46484 A 1.8898809 1.5591518 0 0 0 44.505859 138.90625 A 1.8898809 1.5591518 0 0 0 42.931641 139.60742 A 3.8270089 3.5907735 0 0 0 40.017578 138.33984 A 3.8270089 3.5907735 0 0 0 36.226562 141.47852 C 33.739379 141.56338 31.342233 141.57137 29.019531 141.52734 L 29.019531 126.30664 L 32.650391 126.19141 C 33.367684 126.16869 33.866494 124.5205 33.871094 123.54492 L 33.919922 112.84961 C 33.924486 111.87403 33.518264 111.05469 32.800781 111.05469 C 32.083297 111.05469 31.505859 111.83886 31.505859 112.81445 C 31.505859 112.81445 31.735274 121.60929 31.130859 122.5332 C 30.936337 122.83055 30.070243 122.92468 29.019531 122.93164 L 29.019531 108.2793 C 29.019531 105.33961 27.279123 102.97266 25.117188 102.97266 C 22.955253 102.97266 21.214844 105.33961 21.214844 108.2793 L 21.214844 116.57422 C 20.152391 116.69604 18.930145 116.74727 18.691406 116.33789 C 18.263159 115.60354 18.691406 110.73438 18.691406 110.73438 C 18.691406 109.6996 18.077409 108.86523 17.316406 108.86523 C 16.555405 108.86523 15.943359 109.6996 15.943359 110.73438 L 15.943359 118.20508 C 15.943359 119.23985 16.620503 119.72696 17.380859 119.76953 L 21.214844 119.98242 L 21.214844 128.03906 C 18.914693 128.09779 15.514584 128.10603 14.925781 127.5957 C 14.036436 126.82491 14.742187 118.78711 14.742188 118.78711 C 14.742188 117.76962 13.9736 116.95117 13.019531 116.95117 C 12.065459 116.95117 11.28284 117.7698 11.296875 118.78711 L 11.435547 128.80469 C 11.449577 129.822 12.665335 131.29938 13.619141 131.33008 L 21.214844 131.57617 L 21.214844 141.15039 C 14.835575 140.63649 9.2183196 139.67566 4.3398438 138.51953 A 3.6852678 5.5751485 0 0 0 0.66210938 133.23633 A 3.6852678 5.5751485 0 0 0 -2.7109375 136.57422 C -13.41992 133.16775 -18.898438 129.26758 -18.898438 129.26758 L -68.035156 158.75 L -72.572266 332.61914 L 569.23242 333.375 L 569.23242 305.4043 C 569.23242 305.4043 554.11365 112.63774 551.08984 88.447266 C 548.192 65.26436 517.60668 95.1455 475.71875 106.35938 L 475.71875 96.320312 L 479.25391 96.224609 C 479.95228 96.205666 480.43741 94.83297 480.44141 94.019531 L 480.49023 85.099609 C 480.49468 84.28617 480.09894 83.603516 479.40039 83.603516 C 478.70184 83.603516 478.13867 84.258812 478.13867 85.072266 C 478.13867 85.072266 478.36191 92.403469 477.77344 93.173828 C 477.58402 93.421786 476.74192 93.502032 475.71875 93.507812 L 475.71875 81.289062 C 475.71875 78.837948 474.02286 76.865234 471.91797 76.865234 z "
         id="path855" />
    </g>
  </g>
</svg>
