<?xml version="1.0" encoding="UTF-8" standalone="no"?>
<svg
   xmlns:dc="http://purl.org/dc/elements/1.1/"
   xmlns:cc="http://creativecommons.org/ns#"
   xmlns:rdf="http://www.w3.org/1999/02/22-rdf-syntax-ns#"
   xmlns:svg="http://www.w3.org/2000/svg"
   xmlns="http://www.w3.org/2000/svg"
   xmlns:xlink="http://www.w3.org/1999/xlink"
   xmlns:sodipodi="http://sodipodi.sourceforge.net/DTD/sodipodi-0.dtd"
   xmlns:inkscape="http://www.inkscape.org/namespaces/inkscape"
   height="100%"
   id="svg8"
   version="1.1"
   viewBox="0 0 132.29166 52.916669"
   width="100%"
   sodipodi:docname="Clouds.svg"
   inkscape:export-filename="D:\WALLPAPER\desert vector.png"
   inkscape:export-xdpi="69"
   inkscape:export-ydpi="69"
   inkscape:version="0.92.5 (2060ec1f9f, 2020-04-08)">
  <defs
     id="defs2">
    <linearGradient
       id="linearGradient5043"
       inkscape:collect="always">
      <stop
         id="stop5041"
         offset="0"
         style="stop-color:#ecbca4;stop-opacity:1" />
      <stop
         id="stop5039"
         offset="1"
         style="stop-color:#feffeb;stop-opacity:1;" />
    </linearGradient>
    <linearGradient
       gradientUnits="userSpaceOnUse"
       id="linearGradient5045"
       x1="250.16428"
       x2="250.16428"
       y1="3.5133791"
       y2="282.54276"
       inkscape:collect="always"
       xlink:href="#linearGradient5043" />
  </defs>
  <sodipodi:namedview
     bordercolor="#000000"
     borderlayer="true"
     borderopacity="1"
     id="base"
     pagecolor="#ffffff"
     showgrid="false"
     showguides="false"
     units="px"
     inkscape:current-layer="g4876"
     inkscape:cx="61.983619"
     inkscape:cy="40.619323"
     inkscape:document-units="mm"
     inkscape:pageopacity="0.0"
     inkscape:pageshadow="2"
     inkscape:showpageshadow="false"
     inkscape:snap-global="false"
     inkscape:window-height="740"
     inkscape:window-maximized="1"
     inkscape:window-width="1366"
     inkscape:window-x="0"
     inkscape:window-y="0"
     inkscape:zoom="1.979899">
    <sodipodi:guide
       id="guide4560"
       orientation="1,0"
       position="-79.375,40.82143"
       inkscape:locked="false" />
  </sodipodi:namedview>
  <metadata
     id="metadata5">
    <rdf:RDF>
      <cc:Work
         rdf:about="">
        <dc:format>image/svg+xml</dc:format>
        <dc:type
           rdf:resource="http://purl.org/dc/dcmitype/StillImage" />
        <dc:title />
      </cc:Work>
    </rdf:RDF>
  </metadata>
  <g
     id="layer11"
     inkscape:groupmode="layer"
     inkscape:label="Clouds"
     transform="translate(0,-232.83333)">
    <g
       id="g4876"
       transform="matrix(1.2134662,0,0,1.2797346,-20.849178,220.19846)">
      <path
         style="opacity:0.98000004;fill:#f8f4f9;fill-opacity:1;stroke:none;stroke-width:1.10000002;stroke-linecap:square;stroke-linejoin:bevel;stroke-miterlimit:4;stroke-dasharray:none;stroke-opacity:1;paint-order:markers fill stroke"
         d="m 79.815231,12.833858 c -3.212726,-0.318686 -6.270069,2.176538 -8.381103,3.242872 -3.856115,-2.851011 -10.123695,-1.979425 -12.642187,2.103163 -1.034203,3.464733 -2.402532,-1.892752 -4.809234,-1.919313 -3.850853,-2.172194 -6.284919,2.792271 -9.617687,1.955532 -4.928364,-0.439213 -10.472684,0.455818 -14.059,3.908223 -2.082667,2.691244 0.797458,5.673191 3.468258,6.589586 -3.275049,3.413747 -1.079258,8.796951 2.636011,11.017855 3.49914,2.050054 8.012609,2.280221 11.928736,1.269545 1.974254,3.055784 6.432334,3.892664 9.832693,2.736468 2.506553,3.418164 7.905426,4.733368 11.542709,2.152459 2.441865,-0.978305 2.954265,-5.140526 5.916454,-3.032484 5.823605,0.822729 12.460111,1.217159 17.541248,-2.117369 2.258335,-0.671596 2.40692,-5.709232 4.375232,-2.640825 3.015129,1.720533 7.247319,1.616051 10.265849,-0.08576 3.44666,-1.905618 1.05886,-5.760925 -2.08596,-6.21545 3.90579,-1.817162 2.29782,-6.946232 -1.62532,-7.591958 -1.41482,-1.816718 -1.49576,-5.348873 -3.72316,-7.232907 -3.265462,-3.854648 -9.489456,-4.733914 -13.982121,-2.379935 -1.917822,-1.241923 -4.269398,-1.826043 -6.581418,-1.759704 z"
         id="path4836"
         inkscape:connector-curvature="0" />
    </g>
  </g>
</svg>
