<svg height="512pt" viewBox="0 -31 512 512" width="512pt" xmlns="http://www.w3.org/2000/svg"><path d="m504.5 434.199219h-28.894531c6.683593-9.128907 9.4375-20.707031 7.308593-32.199219-1.152343-6.199219-3.65625-11.898438-7.191406-16.804688 6.335938-1.460937 12.40625-4.332031 17.726563-8.589843 3.011719-2.410157 4.773437-6.007813 4.835937-9.863281.0625-3.859376-1.582031-7.511719-4.515625-10.019532l-69.417969-59.347656c-5.109374-4.371094-8.941406-10.046875-11.078124-16.421875l-16.21875-48.429687c-.003907-.015626-.011719-.03125-.015626-.046876l-14.605468-43.597656c-6.621094-19.769531-22.449219-35.300781-42.339844-41.546875l-50.296875-15.796875c13.65625-9.628906 22.601563-25.515625 22.601563-43.460937v-34.910157c0-29.316406-23.851563-53.164062-53.164063-53.164062s-53.164063 23.847656-53.164063 53.164062v34.914063c0 17.117187 8.140626 32.363281 20.746094 42.089844-1.304687.359375-2.605468.738281-3.902344 1.144531l-51.007812 16.019531c-19.890625 6.246094-35.71875 21.777344-42.339844 41.546875l-30.84375 92.074219c-2.136718 6.375-5.964844 12.054687-11.074218 16.421875l-69.417969 59.351562c-2.933594 2.507813-4.578125 6.15625-4.515625 10.015626.0625 3.859374 1.824218 7.453124 4.835937 9.863281 5.5625 4.453125 11.941407 7.390625 18.589844 8.78125-6.277344 11.550781-7.46875 25.636719-2.628906 38.40625 1.46875 3.863281 3.402343 7.34375 5.730469 10.410156h-32.742188c-4.144531 0-7.5 3.355469-7.5 7.5 0 4.140625 3.355469 7.5 7.5 7.5h448.890625.007813.007812 48.09375c4.144531 0 7.5-3.359375 7.5-7.5 0-4.144531-3.359375-7.503906-7.5-7.503906zm-170.683594-174.960938 26.488282 65.910157c.148437.367187.324218.722656.527343 1.0625 4.6875 7.804687 11.363281 14.269531 19.3125 18.703124l8.78125 4.894532-55.109375-16.828125zm80.785156 49.539063 67.410157 57.628906c-9.039063 6.039062-20.675781 6.574219-30.304688 1.222656l-64.257812-35.816406c-5.496094-3.0625-10.140625-7.496094-13.460938-12.835938l-23.609375-58.75 35.015625-15.285156 13.65625 40.773438c3 8.953125 8.378907 16.925781 15.550781 23.0625zm-193.53125-220.699219v-34.914063c0-21.042968 17.121094-38.164062 38.164063-38.164062s38.164063 17.121094 38.164063 38.164062v34.914063c0 21.042969-17.121094 38.164063-38.164063 38.164063s-38.164063-17.121094-38.164063-38.164063zm-44.671874 73.5625 51.011718-16.015625c18.703125-5.875 38.476563-5.875 57.179688 0l51.011718 16.015625c15.320313 4.8125 27.511719 16.773437 32.609376 32.003906l12.402343 37.019531-35.832031 15.636719-11.507812-28.632812c-1.339844-3.332031-4.851563-5.25-8.382813-4.566407-3.527344.683594-6.074219 3.773438-6.074219 7.363282v110.566406h-125.632812v-110.566406c0-3.589844-2.546875-6.679688-6.074219-7.363282-3.519531-.683593-7.042969 1.234376-8.382813 4.566407l-9.960937 24.78125-35.394531-17.699219 10.417968-31.105469c5.097657-15.230469 17.289063-27.191406 32.609376-32.003906zm-79.003907 147.136719c7.175781-6.136719 12.554688-14.109375 15.550781-23.0625l15.609376-46.601563 34.597656 17.300781-5.453125 13.566407c-1.542969 3.84375.320312 8.210937 4.164062 9.757812 3.839844 1.542969 8.210938-.320312 9.753907-4.164062l6.566406-16.332031v73.714843l-54.027344 16.25 7.695312-4.292969c7.949219-4.429687 14.628907-10.894531 19.316407-18.699218.203125-.339844.378906-.695313.527343-1.066406l5.605469-13.953126c1.546875-3.84375-.316406-8.210937-4.160156-9.753906-3.84375-1.546875-8.210937.316406-9.757813 4.160156l-5.375 13.375c-3.320312 5.34375-7.960937 9.773438-13.457031 12.835938l-64.25 35.8125c-9.636719 5.355469-21.269531 4.820312-30.3125-1.21875zm-25.714843 125.421875h-.027344c-10.898438 0-19.320313-5.730469-23.113282-15.726563-4.289062-11.3125-1.351562-24.648437 7.113282-33.003906l131.132812-39.4375h138.414063l124.492187 38.015625c9.714844 2.964844 16.621094 10.699219 18.472656 20.6875 1.851563 9.988281-1.820312 19.683594-9.828124 25.933594l-4.519532 3.535156h-158.382812c-.96875-5.257813-3.304688-12.25-8.832032-18.472656l14.941407-.824219c4.136719-.226562 7.304687-3.765625 7.074219-7.902344-.226563-4.132812-3.765626-7.296875-7.898438-7.074218l-40.648438 2.246093c-1.71875-.308593-3.511718-.566406-5.394531-.757812l-115.675781-12.082031c-4.148438-.433594-7.808594 2.5625-8.238281 6.679687-.429688 4.121094 2.5625 7.808594 6.679687 8.238281l115.683594 12.082032c1.75.179687 3.394531.425781 4.933594.722656.03125.007812.066406.011718.097656.019531 14.972656 2.9375 20.238281 11.085937 22.054688 17.121094zm0 0"/><path d="m340.015625 412.769531c.136719 0 .277344 0 .417969-.007812l50.582031-2.792969c4.132813-.230469 7.300781-3.765625 7.074219-7.902344-.226563-4.136718-3.769532-7.308594-7.902344-7.074218l-50.578125 2.792968c-4.136719.226563-7.304687 3.765625-7.078125 7.898438.222656 3.996094 3.527344 7.085937 7.484375 7.085937zm0 0"/></svg>