<?xml version="1.0" encoding="iso-8859-1"?>
<!-- Generator: Adobe Illustrator 19.0.0, SVG Export Plug-In . SVG Version: 6.00 Build 0)  -->
<svg version="1.1" id="Capa_1" xmlns="http://www.w3.org/2000/svg" xmlns:xlink="http://www.w3.org/1999/xlink" x="0px" y="0px"
	 viewBox="0 0 512 512" style="enable-background:new 0 0 512 512;" xml:space="preserve">
<g>
	<g>
		<path d="M316,61.538v-3.677C316,25.957,289.091,0,256,0s-60,25.957-60,57.861v3.677c0,15.366,6.504,30.366,17.842,41.147
			l20.405,19.453l-33.589,32.007c-6.006,5.713-6.24,15.205-0.513,21.196c5.713,6.021,15.205,6.226,21.196,0.513L256,142.852
			l34.658,33.003C293.559,178.623,297.279,180,301,180c3.955,0,7.91-1.553,10.854-4.658c5.728-5.991,5.493-15.483-0.513-21.196
			l-33.589-32.007l20.405-19.438C309.496,91.904,316,76.904,316,61.538z M286,61.538c0,7.295-3.032,14.194-8.525,19.438L256,101.426
			l-21.475-20.464C229.032,75.732,226,68.833,226,61.538v-3.677C226,42.495,239.462,30,256,30c16.538,0,30,12.495,30,27.861V61.538z
			"/>
	</g>
</g>
<g>
	<g>
		<path d="M482,122c-15.778,0-30,12.971-30,30v96c0,11.999-4.801,23.399-13.2,31.8c-29.194,29.194-47.534,47.532-81.301,81.299
			c-5.099,5.7-15.899,5.7-21,0c-5.999-5.999-5.999-15.298,0-21.299l81-81.301c8.992-6.422,9.439-29.914-2.401-39.6
			C401.3,205.101,380.9,208.4,371,220.699c-0.601,0.601-82.2,81.901-82.8,82.8c-9,9-16.199,24.3-16.199,40.8
			c0,44.066,0,57.898,0,77.701h151.437c3.001-17.827,11.217-35.189,25.263-49.501c9.602-9.602,32.036-32.038,41.398-41.4
			C504.2,317,512,298.1,512,278.301c0-42.261,0-84.269,0-126.301C512,135.5,498.5,122,482,122z"/>
	</g>
</g>
<g>
	<g>
		<path d="M223.801,303.499c-0.601-0.898-82.2-82.199-82.801-82.8c-9.901-12.299-30.3-15.599-44.099-1.8
			c-11.84,9.686-11.393,33.179-2.401,39.6l81,81.301c5.999,6,5.999,15.3,0,21.299c-5.101,5.7-15.901,5.7-21,0
			c-33.766-33.766-52.106-52.104-81.301-81.299C64.801,271.399,60,259.999,60,248v-96c0-17.029-14.222-30-30-30
			c-16.5,0-30,13.5-30,30c0,42.032,0,84.04,0,126.301C0,298.1,7.8,317,21.901,331.099c9.362,9.362,31.796,31.798,41.398,41.4
			C77.346,386.811,85.562,404.173,88.563,422H240c0-19.803,0-33.635,0-77.701C240,327.799,232.8,312.499,223.801,303.499z"/>
	</g>
</g>
<g>
	<g>
		<path d="M90,452c-16.569,0-30,13.431-30,30v15c0,8.284,6.716,15,15,15h165v-60H90z"/>
	</g>
</g>
<g>
	<g>
		<path d="M422,452H272v60h165c8.284,0,15-6.716,15-15v-15C452,465.431,438.569,452,422,452z"/>
	</g>
</g>
<g>
</g>
<g>
</g>
<g>
</g>
<g>
</g>
<g>
</g>
<g>
</g>
<g>
</g>
<g>
</g>
<g>
</g>
<g>
</g>
<g>
</g>
<g>
</g>
<g>
</g>
<g>
</g>
<g>
</g>
</svg>
