<?xml version="1.0" encoding="UTF-8"?>
<svg xmlns="http://www.w3.org/2000/svg" xmlns:xlink="http://www.w3.org/1999/xlink" width="512" height="512" viewBox="0 0 60 60" version="1.1"><!-- Generator: Sketch 51.3 (57544) - http://www.bohemiancoding.com/sketch --><title>007 - Autism</title><desc>Created with Sketch.</desc><defs/><g id="Page-1" stroke="none" stroke-width="1" fill="none" fill-rule="evenodd"><g id="007---Autism" transform="translate(-1.000000, 0.000000)" fill="#000000" fill-rule="nonzero"><path d="M2.472,37.391 C2.80078202,37.6194083 3.14797678,37.8200989 3.51,37.991 C3.942,38.212 4.667,38.582 4.718,38.841 C4.78085126,39.1828692 4.73974795,39.5357307 4.6,39.854 C4.451,40.174 4.295,40.449 4.16,40.686 C3.794,41.333 3.181,42.417 4.105,43.172 C4.321,43.372 4.694,43.661 5.034,43.922 C4.78370505,44.359639 4.67048978,44.8623148 4.709,45.365 C4.76206133,45.7609003 4.97674391,46.1171358 5.302,46.349 C5.524,46.505 5.761,46.641 5.994,46.774 C6.586,47.11 6.817,47.267 6.894,47.581 C6.94956021,47.9834802 6.91541128,48.3932674 6.794,48.781 C6.735,49.048 6.678,49.316 6.644,49.581 C6.54469822,50.4923539 6.65729272,51.4143284 6.973,52.275 C7.42281456,53.8638526 8.85996076,54.9707558 10.511,55 C10.7865929,54.9991845 11.0613714,54.9700312 11.331,54.913 C14.1877778,54.2358183 17.0028445,53.3934018 19.762,52.39 C22.015,53.712 23.438,57.732 23.809,59.241 C23.9197719,59.6870872 24.3203652,60.0002183 24.78,60 L49.88,59.93 C50.198095,59.9293833 50.4969218,59.7774667 50.6848608,59.5208273 C50.8727998,59.2641879 50.9274293,58.9334437 50.832,58.63 C50.584758,57.9524505 50.2437748,57.3128965 49.819,56.73 C49.5792082,56.3843183 49.3630492,56.0228282 49.172,55.648 C48.7190564,54.7315437 48.3414759,53.7797332 48.043,52.802 C47.4719279,50.8701776 47.0759954,48.8908497 46.86,46.888 C46.5989687,44.5717463 46.8202794,42.2265341 47.51,40 L50,40 C51.6568542,40 53,38.6568542 53,37 L53,24 C53,23.4477153 52.5522847,23 52,23 L47.964,23 C47.987498,22.834361 47.9995267,22.6672968 48,22.5 C48,20.5670034 46.4329966,19 44.5,19 C42.5670034,19 41,20.5670034 41,22.5 C41.0004733,22.6672968 41.012502,22.834361 41.036,23 L38,23 L38,19.965 C38.5525556,20.0436927 39.1158892,19.9905804 39.644,19.81 C40.7855962,19.4211999 41.6437712,18.4680086 41.911,17.292 C42.1726918,16.1657743 41.8612892,14.9829783 41.0789461,14.1316227 C40.2966031,13.2802671 39.1442834,12.8702217 38,13.036 L38,9 C38,8.44771525 37.5522847,8 37,8 L24,8 C22.3431458,8 21,9.34314575 21,11 L21,37 C21,38.6568542 22.3431458,40 24,40 L45.41,40 C44.7806242,42.3211618 44.5997257,44.741062 44.877,47.13 C45.1076596,49.2534653 45.5286863,51.3519052 46.135,53.4 C46.4640482,54.4749292 46.879054,55.5216399 47.376,56.53 C47.6041562,56.9828684 47.8630969,57.4195592 48.151,57.837 L48.218,57.937 L25.536,58 C24.8721602,55.6278229 23.6672676,53.4419012 22.016,51.614 L22.916,51.299 C23.586,51.065 24.091,50.889 24.35,50.806 C28.634,49.451 30.776,47.5 30.718,45.006 C30.7050213,44.4537153 30.2467847,44.0165213 29.6945,44.0295 C29.1422153,44.0424787 28.7050213,44.5007153 28.718,45.053 C28.742,46.082 27.899,47.583 23.742,48.898 C23.471,48.985 22.949,49.167 22.256,49.409 C21.513,49.669 20.568,49.999 19.526,50.353 L19.519,50.353 C16.7047997,51.3845725 13.8333482,52.2526858 10.919,52.953 C9.98843633,53.1296801 9.08382639,52.5420363 8.867,51.62 C8.65336419,51.0511056 8.5729723,50.4408114 8.632,49.836 C8.658,49.626 8.706,49.418 8.752,49.209 C8.95576498,48.5176489 8.98564963,47.7866772 8.839,47.081 C8.54814599,46.1623751 7.87220583,45.4156291 6.987,45.035 L6.78,44.917 C6.88797779,44.6989963 7.01691908,44.4920204 7.165,44.299 C7.33275906,44.0864363 7.40714209,43.8149259 7.3711438,43.5465408 C7.33514552,43.2781557 7.19184383,43.0358431 6.974,42.875 C6.734,42.699 6.168,42.275 5.754,41.941 C5.802,41.854 5.854,41.758 5.904,41.671 C6.061,41.396 6.24,41.076 6.415,40.706 C6.73144627,40.0050454 6.82465982,39.2237273 6.682,38.468 C6.442,37.248 5.273,36.65 4.421,36.214 C4.13330073,36.0772824 3.85736569,35.9170729 3.596,35.735 C3.38336862,35.5912941 3.18391862,35.42899 3,35.25 C3,35.098 3.163,34.73 3.925,33.803 C5.71607044,31.4972449 7.2517206,29.0039928 8.505,26.367 C8.73934083,25.9538574 8.87135428,25.4906102 8.89,25.016 C8.78670832,24.0108401 8.25404392,23.0993679 7.429,22.516 C7.029,22.145 6.644,21.795 6.599,21.469 C6.60563423,21.2329751 6.65864086,21.0005614 6.755,20.785 C6.918,20.356 7.106,19.936 7.295,19.515 C7.70505054,18.6694994 8.03256792,17.786408 8.273,16.878 L8.373,16.452 C8.58408599,15.4522697 8.85626318,14.4664205 9.188,13.5 C9.97629737,11.324256 11.1967986,9.33056659 12.776,7.639 C14.689,5.615 17.7,4.183 21.74,3.38 C24.8292288,2.70168567 27.9639186,2.25014863 31.119,2.029 C35.6754767,1.8013892 40.1863531,3.02812624 44,5.532 L44,6.5 C44,6.87877206 44.2140024,7.22503518 44.5527864,7.39442719 C44.8915704,7.56381921 45.2969824,7.52726324 45.6,7.3 C46.2534706,6.8389544 47.1509688,6.95401828 47.667,7.565 C47.9576482,7.92833557 48.0642988,8.4054953 47.956,8.858 C47.8386132,9.35040069 47.4781778,9.74891548 47,9.915 C46.5248129,10.0823723 45.9974538,10.0017306 45.594,9.7 C45.291021,9.47628091 44.8880413,9.44176584 44.5514313,9.61070436 C44.2148213,9.77964288 44.0016789,10.1233786 44,10.5 L44,15 C44,16.1045695 44.8954305,17 46,17 L50.5,17 C50.8787721,17 51.2250352,16.7859976 51.3944272,16.4472136 C51.5638192,16.1084296 51.5272632,15.7030176 51.3,15.4 C50.8358758,14.7811677 50.9184499,13.9108787 51.4906755,13.3903766 C52.0629012,12.8698745 52.9370988,12.8698745 53.5093245,13.3903766 C54.0815501,13.9108787 54.1641242,14.7811677 53.7,15.4 C53.4727368,15.7030176 53.4361808,16.1084296 53.6055728,16.4472136 C53.7749648,16.7859976 54.1212279,17 54.5,17 L60,17 C60.5522847,17 61,16.5522847 61,16 L61,3 C61,1.34314575 59.6568542,1.01453063e-16 58,0 L45,0 C44.4477153,-3.38176876e-17 44,0.44771525 44,1 L44,3.137 C40.0598774,0.878619432 35.5536043,-0.199526018 31.018,0.031 C27.7640828,0.25668862 24.5310865,0.720598351 21.345,1.419 C16.836,2.319 13.559,3.9 11.322,6.264 C9.55741114,8.15217091 8.19304573,10.3778111 7.311,12.807 C6.95086895,13.8522819 6.65498362,14.9186045 6.425,16 L6.325,16.422 C6.1115707,17.2063052 5.82532664,17.9689531 5.47,18.7 C5.27,19.156 5.062,19.612 4.883,20.084 C4.65284498,20.6094053 4.56192334,21.1852424 4.619,21.756 C4.82021123,22.6521932 5.3374331,23.4459531 6.076,23.992 C6.565,24.44 6.886,24.756 6.89,25.031 C6.85421996,25.1830023 6.79697882,25.3291355 6.72,25.465 C5.52247783,27.986227 4.05560327,30.370443 2.345,32.576 C1.62,33.458 0.86,34.487 1.02,35.517 C1.23211923,36.311598 1.75555427,36.9871609 2.472,37.391 Z M23,11 C23,10.4477153 23.4477153,10 24,10 L36,10 L36,14.5 C36,14.8787721 36.2140024,15.2250352 36.5527864,15.3944272 C36.8915704,15.5638192 37.2969824,15.5272632 37.6,15.3 C38.2534706,14.8389544 39.1509688,14.9540183 39.667,15.565 C39.9576482,15.9283356 40.0642988,16.4054953 39.956,16.858 C39.8386132,17.3504007 39.4781778,17.7489155 39,17.915 C38.523272,18.082319 37.9944518,18.0001248 37.591,17.696 C37.2874703,17.4736199 36.8848026,17.4404479 36.5489723,17.6101572 C36.213142,17.7798665 36.0010043,18.1237259 36,18.5 L36,23 L32.966,23 C33.0434465,22.4480056 32.9900084,21.8855346 32.81,21.358 C32.4220813,20.2156125 31.4692462,19.3562817 30.293,19.088 C29.2525622,18.8459721 28.1585566,19.0923336 27.3222947,19.7569797 C26.4860328,20.4216257 25.9990785,21.431783 26,22.5 C26.0004733,22.6672968 26.012502,22.834361 26.036,23 L23,23 L23,11 Z M23,37 L23,25 L27.5,25 C27.8787721,25 28.2250352,24.7859976 28.3944272,24.4472136 C28.5638192,24.1084296 28.5272632,23.7030176 28.3,23.4 C27.8165311,22.7519094 27.933739,21.8372456 28.565,21.332 C28.9288145,21.0415321 29.4063339,20.9352526 29.859,21.044 C30.3515615,21.1606604 30.7500728,21.5214339 30.915,22 C31.0835295,22.4764276 31.000832,23.0056914 30.695,23.408 C30.4719286,23.711685 30.4385041,24.1149806 30.6085375,24.4512455 C30.778571,24.7875103 31.1231906,24.9996467 31.5,25 L36,25 L36,28.036 C34.6432091,27.8398828 33.2968315,28.4539384 32.5553829,29.6070201 C31.8139344,30.7601018 31.8139344,32.2398982 32.5553829,33.3929799 C33.2968315,34.5460616 34.6432091,35.1601172 36,34.964 L36,38 L24,38 C23.4477153,38 23,37.5522847 23,37 Z M37.445,32.6 C37.1044465,32.4328869 36.6988451,32.4715524 36.396,32.7 C35.7771677,33.1641242 34.9068787,33.0815501 34.3863766,32.5093245 C33.8658745,31.9370988 33.8658745,31.0629012 34.3863766,30.4906755 C34.9068787,29.9184499 35.7771677,29.8358758 36.396,30.3 C36.6990176,30.5272632 37.1044296,30.5638192 37.4432136,30.3944272 C37.7819976,30.2250352 37.996,29.8787721 37.996,29.5 L37.996,25 L42.496,25 C42.8747721,25 43.2210352,24.7859976 43.3904272,24.4472136 C43.5598192,24.1084296 43.5232632,23.7030176 43.296,23.4 C42.8318758,22.7811677 42.9144499,21.9108787 43.4866755,21.3903766 C44.0589012,20.8698745 44.9330988,20.8698745 45.5053245,21.3903766 C46.0775501,21.9108787 46.1601242,22.7811677 45.696,23.4 C45.4687368,23.7030176 45.4321808,24.1084296 45.6015728,24.4472136 C45.7709648,24.7859976 46.1172279,25 46.496,25 L51,25 L51,37 C51,37.5522847 50.5522847,38 50,38 L38,38 L38,33.5 C38.0017022,33.1187272 37.7864467,32.7696643 37.445,32.6 Z M46,2 L58,2 C58.5522847,2 59,2.44771525 59,3 L59,15 L55.964,15 C55.987498,14.834361 55.9995267,14.6672968 56,14.5 C56,12.5670034 54.4329966,11 52.5,11 C50.5670034,11 49,12.5670034 49,14.5 C49.0004733,14.6672968 49.012502,14.834361 49.036,15 L46,15 L46,11.965 C46.5525547,12.0437308 47.1158972,11.9906176 47.644,11.81 C48.7855962,11.4211999 49.6437712,10.4680086 49.911,9.292 C50.1726918,8.16577428 49.8612892,6.98297831 49.0789461,6.13162268 C48.2966031,5.28026705 47.1442834,4.87022168 46,5.036 L46,2 Z" id="Shape"/><path d="M12.166,17.791 L12.266,17.357 C12.4434665,16.5211797 12.6684992,15.6961711 12.94,14.886 C13.5415702,13.2145911 14.4776381,11.6834003 15.691,10.386 C16.4691984,9.60340685 17.3932981,8.98099852 18.411,8.554 C18.7482795,8.41522295 18.9832579,8.10382979 19.0241772,7.74141821 C19.0650965,7.37900663 18.9054665,7.02305888 18.6076219,6.81257101 C18.3097773,6.60208314 17.9209594,6.57044073 17.593,6.73 C16.3345802,7.26296453 15.1937669,8.03913896 14.236,9.014 C12.8357424,10.5085629 11.755349,12.2732621 11.061,14.2 C10.7592412,15.0882941 10.5098134,15.9935133 10.314,16.911 L10.214,17.351 C10.1542938,17.6102999 10.2003915,17.8827032 10.3420905,18.1079201 C10.4837895,18.3331371 10.7094041,18.4925943 10.969,18.551 C11.041488,18.5676417 11.1156262,18.5760283 11.19,18.576 C11.6592092,18.5757119 12.0651201,18.2492364 12.166,17.791 Z" id="Shape"/><circle id="Oval" cx="10" cy="21" r="1"/></g></g></svg>
