<svg id="Capa_1" enable-background="new 0 0 512 512" height="512" viewBox="0 0 512 512" width="512" xmlns="http://www.w3.org/2000/svg"><g><path d="m435.258 94.428c-5.153-36.368-36.489-64.428-74.258-64.428-11.271 0-22.188 2.546-32.236 7.454-16.752-23.164-43.831-37.454-72.764-37.454s-56.012 14.29-72.764 37.454c-10.048-4.908-20.965-7.454-32.236-7.454-37.769 0-69.105 28.06-74.258 64.428-44.501 12.965-76.742 54.656-76.742 101.572 0 47.211 32.27 87.735 76.73 100.582 5.007 35.989 35.861 65.418 74.27 65.418 11.271 0 22.188-2.546 32.236-7.454 16.752 23.164 43.831 37.454 72.764 37.454s56.012-14.29 72.764-37.454c10.048 4.908 20.965 7.454 32.236 7.454 38.412 0 69.263-29.432 74.27-65.418 44.47-12.85 76.73-53.381 76.73-100.582 0-46.916-32.241-88.607-76.742-101.572zm-16.879 175.279c-7.37 1.231-12.711 7.699-12.524 15.169.642 26.499-20.928 47.124-44.855 47.124-10.045 0-19.694-3.47-27.904-10.034-7.558-6.044-18.815-3.449-22.942 5.335-9.908 21.079-31.165 34.699-54.154 34.699s-44.246-13.62-54.153-34.7c-4.103-8.732-15.343-11.413-22.942-5.335-8.211 6.565-17.86 10.035-27.905 10.035-24.069 0-45.518-20.806-44.854-47.124.187-7.47-5.154-13.938-12.524-15.169-36.27-6.057-63.622-37.744-63.622-73.707 0-36.533 27.352-68.65 63.621-74.707 7.546-1.26 13.48-8.165 12.385-17.028.393-24.476 20.427-44.265 44.994-44.265 10.045 0 19.694 3.47 27.904 10.034 3.588 2.869 8.292 3.935 12.765 2.895 4.474-1.04 8.225-4.073 10.178-8.229 9.907-21.08 31.164-34.7 54.153-34.7s44.246 13.62 54.153 34.7c1.953 4.157 5.704 7.189 10.178 8.229 4.472 1.04 9.178-.026 12.765-2.895 8.21-6.564 17.859-10.034 27.904-10.034 24.566 0 44.598 19.788 44.994 44.262-1.09 8.837 4.812 15.767 12.385 17.031 36.269 6.057 63.621 38.174 63.621 74.707 0 35.963-27.352 67.65-63.621 73.707z"/><path d="m346 181h-23.787l34.394-34.393c4.29-4.29 5.573-10.742 3.252-16.347-2.322-5.605-7.791-9.26-13.858-9.26h-60c-8.284 0-15 6.716-15 15s6.716 15 15 15h23.787l-34.394 34.393c-4.29 4.29-5.573 10.742-3.252 16.347 2.322 5.605 7.791 9.26 13.858 9.26h60c8.284 0 15-6.716 15-15s-6.716-15-15-15z"/><path d="m226 241h-23.787l34.394-34.393c4.29-4.29 5.573-10.742 3.252-16.347-2.322-5.605-7.791-9.26-13.858-9.26h-60c-8.284 0-15 6.716-15 15s6.716 15 15 15h23.787l-34.394 34.393c-4.29 4.29-5.573 10.742-3.252 16.347 2.322 5.605 7.791 9.26 13.858 9.26h60c8.284 0 15-6.716 15-15s-6.716-15-15-15z"/><circle cx="46" cy="497" r="15"/><path d="m181 437c0-24.813-20.187-45-45-45s-45 20.187-45 45 20.187 45 45 45 45-20.187 45-45zm-60 0c0-8.271 6.729-15 15-15s15 6.729 15 15-6.729 15-15 15-15-6.729-15-15z"/></g></svg>