<?xml version="1.0" encoding="UTF-8" standalone="no"?>
<!-- Generator: Adobe Illustrator 19.0.0, SVG Export Plug-In . SVG Version: 6.00 Build 0)  -->

<svg
   xmlns:dc="http://purl.org/dc/elements/1.1/"
   xmlns:cc="http://creativecommons.org/ns#"
   xmlns:rdf="http://www.w3.org/1999/02/22-rdf-syntax-ns#"
   xmlns:svg="http://www.w3.org/2000/svg"
   xmlns="http://www.w3.org/2000/svg"
   xmlns:sodipodi="http://sodipodi.sourceforge.net/DTD/sodipodi-0.dtd"
   xmlns:inkscape="http://www.inkscape.org/namespaces/inkscape"
   version="1.1"
   id="Capa_1"
   x="0px"
   y="0px"
   viewBox="0 0 302.4 302.4"
   style="enable-background:new 0 0 302.4 302.4;"
   xml:space="preserve"
   sodipodi:docname="sun.svg"
   inkscape:version="0.92.4 (5da689c313, 2019-01-14)"><metadata
   id="metadata61"><rdf:RDF><cc:Work
       rdf:about=""><dc:format>image/svg+xml</dc:format><dc:type
         rdf:resource="http://purl.org/dc/dcmitype/StillImage" /></cc:Work></rdf:RDF></metadata><defs
   id="defs59" /><sodipodi:namedview
   pagecolor="#ffffff"
   bordercolor="#666666"
   borderopacity="1"
   objecttolerance="10"
   gridtolerance="10"
   guidetolerance="10"
   inkscape:pageopacity="0"
   inkscape:pageshadow="2"
   inkscape:window-width="1366"
   inkscape:window-height="705"
   id="namedview57"
   showgrid="false"
   inkscape:zoom="0.7804233"
   inkscape:cx="-73.677964"
   inkscape:cy="151.2"
   inkscape:window-x="-8"
   inkscape:window-y="-8"
   inkscape:window-maximized="1"
   inkscape:current-layer="Capa_1" />
<g
   id="g24"
   style="fill:currentColor;fill-opacity:1">
	<g
   id="g22"
   style="fill:#d41d1d;fill-opacity:1">
		<g
   id="g20"
   style="fill:#d41d1d;fill-opacity:1">
			<path
   d="M204.8,97.6C191.2,84,172,75.2,151.2,75.2s-40,8.4-53.6,22.4c-13.6,13.6-22.4,32.8-22.4,53.6s8.8,40,22.4,53.6     c13.6,13.6,32.8,22.4,53.6,22.4s40-8.4,53.6-22.4c13.6-13.6,22.4-32.8,22.4-53.6S218.8,111.2,204.8,97.6z"
   id="path2"
   style="fill:#d41d1d;fill-opacity:1" />
			<path
   d="M151.2,51.6c5.6,0,10.4-4.8,10.4-10.4V10.4c0-5.6-4.8-10.4-10.4-10.4c-5.6,0-10.4,4.8-10.4,10.4v30.8     C140.8,46.8,145.6,51.6,151.2,51.6z"
   id="path4"
   style="fill:#d41d1d;fill-opacity:1" />
			<path
   d="M236.4,80.8l22-22c4-4,4-10.4,0-14.4s-10.4-4-14.4,0l-22,22c-4,4-4,10.4,0,14.4C225.6,84.8,232,84.8,236.4,80.8z"
   id="path6"
   style="fill:#d41d1d;fill-opacity:1" />
			<path
   d="M292,140.8h-30.8c-5.6,0-10.4,4.8-10.4,10.4c0,5.6,4.8,10.4,10.4,10.4H292c5.6,0,10.4-4.8,10.4-10.4     C302.4,145.6,297.6,140.8,292,140.8z"
   id="path8"
   style="fill:#d41d1d;fill-opacity:1" />
			<path
   d="M236,221.6c-4-4-10.4-4-14.4,0s-4,10.4,0,14.4l22,22c4,4,10.4,4,14.4,0s4-10.4,0-14.4L236,221.6z"
   id="path10"
   style="fill:#d41d1d;fill-opacity:1" />
			<path
   d="M151.2,250.8c-5.6,0-10.4,4.8-10.4,10.4V292c0,5.6,4.8,10.4,10.4,10.4c5.6,0,10.4-4.8,10.4-10.4v-30.8     C161.6,255.6,156.8,250.8,151.2,250.8z"
   id="path12"
   style="fill:#d41d1d;fill-opacity:1" />
			<path
   d="M66,221.6l-22,22c-4,4-4,10.4,0,14.4s10.4,4,14.4,0l22-22c4-4,4-10.4,0-14.4C76.8,217.6,70.4,217.6,66,221.6z"
   id="path14"
   style="fill:#d41d1d;fill-opacity:1" />
			<path
   d="M51.6,151.2c0-5.6-4.8-10.4-10.4-10.4H10.4c-5.6,0-10.4,4.8-10.4,10.4s4.8,10.4,10.4,10.4h30.8     C46.8,161.6,51.6,156.8,51.6,151.2z"
   id="path16"
   style="fill:#d41d1d;fill-opacity:1" />
			<path
   d="M66,80.8c4,4,10.4,4,14.4,0s4-10.4,0-14.4l-22-22c-4-4-10.4-4-14.4,0s-4,10.4,0,14.4L66,80.8z"
   id="path18"
   style="fill:#d41d1d;fill-opacity:1" />
		</g>
	</g>
</g>
<g
   id="g26">
</g>
<g
   id="g28">
</g>
<g
   id="g30">
</g>
<g
   id="g32">
</g>
<g
   id="g34">
</g>
<g
   id="g36">
</g>
<g
   id="g38">
</g>
<g
   id="g40">
</g>
<g
   id="g42">
</g>
<g
   id="g44">
</g>
<g
   id="g46">
</g>
<g
   id="g48">
</g>
<g
   id="g50">
</g>
<g
   id="g52">
</g>
<g
   id="g54">
</g>
</svg>