<svg id="bold" enable-background="new 0 0 24 24" height="512" viewBox="0 0 24 24" width="512" xmlns="http://www.w3.org/2000/svg"><path d="m12 3.457c-.414 0-.75-.336-.75-.75v-1.957c0-.414.336-.75.75-.75s.75.336.75.75v1.957c0 .414-.336.75-.75.75z"/><path d="m18.571 6.179c-.192 0-.384-.073-.53-.22-.293-.293-.293-.768 0-1.061l1.384-1.384c.293-.293.768-.293 1.061 0s.293.768 0 1.061l-1.384 1.384c-.147.146-.338.22-.531.22z"/><path d="m23.25 12.75h-1.956c-.414 0-.75-.336-.75-.75s.336-.75.75-.75h1.956c.414 0 .75.336.75.75s-.336.75-.75.75z"/><path d="m19.955 20.705c-.192 0-.384-.073-.53-.22l-1.384-1.384c-.293-.293-.293-.768 0-1.061s.768-.293 1.061 0l1.384 1.384c.293.293.293.768 0 1.061-.147.147-.339.22-.531.22z"/><path d="m12 24c-.414 0-.75-.336-.75-.75v-1.957c0-.414.336-.75.75-.75s.75.336.75.75v1.957c0 .414-.336.75-.75.75z"/><path d="m4.045 20.705c-.192 0-.384-.073-.53-.22-.293-.293-.293-.768 0-1.061l1.384-1.384c.293-.293.768-.293 1.061 0s.293.768 0 1.061l-1.384 1.384c-.147.147-.339.22-.531.22z"/><path d="m2.706 12.75h-1.956c-.414 0-.75-.336-.75-.75s.336-.75.75-.75h1.956c.414 0 .75.336.75.75s-.336.75-.75.75z"/><path d="m5.429 6.179c-.192 0-.384-.073-.53-.22l-1.384-1.384c-.293-.293-.293-.768 0-1.061s.768-.293 1.061 0l1.384 1.384c.293.293.293.768 0 1.061-.148.146-.339.22-.531.22z"/><path d="m10.823 20c-.086 0-.173-.015-.257-.045-.331-.121-.533-.455-.486-.803l.815-6.152h-3.145c-.282 0-.541-.159-.669-.411s-.103-.555.064-.782l5.5-7.5c.205-.281.577-.385.896-.248.32.135.506.472.449.814l-.854 5.127h3.114c.274 0 .526.149.658.39.131.24.121.533-.026.764l-5.427 8.5c-.141.221-.382.346-.632.346z"/></svg>