<?xml version="1.0" encoding="UTF-8" standalone="no"?>
<!-- Generator: Adobe Illustrator 16.0.0, SVG Export Plug-In . SVG Version: 6.00 Build 0)  -->

<svg
   xmlns:dc="http://purl.org/dc/elements/1.1/"
   xmlns:cc="http://creativecommons.org/ns#"
   xmlns:rdf="http://www.w3.org/1999/02/22-rdf-syntax-ns#"
   xmlns:svg="http://www.w3.org/2000/svg"
   xmlns="http://www.w3.org/2000/svg"
   xmlns:xlink="http://www.w3.org/1999/xlink"
   xmlns:sodipodi="http://sodipodi.sourceforge.net/DTD/sodipodi-0.dtd"
   xmlns:inkscape="http://www.inkscape.org/namespaces/inkscape"
   version="1.1"
   id="Capa_1"
   x="0px"
   y="0px"
   width="92.833px"
   height="92.833px"
   viewBox="0 0 92.833 92.833"
   style="enable-background:new 0 0 92.833 92.833;"
   xml:space="preserve"
   sodipodi:docname="menu.svg"
   inkscape:version="0.92.5 (2060ec1f9f, 2020-04-08)"><metadata
   id="metadata47"><rdf:RDF><cc:Work
       rdf:about=""><dc:format>image/svg+xml</dc:format><dc:type
         rdf:resource="http://purl.org/dc/dcmitype/StillImage" /></cc:Work></rdf:RDF></metadata><defs
   id="defs45"><linearGradient
     inkscape:collect="always"
     id="linearGradient858"><stop
       style="stop-color:#fefeff;stop-opacity:1"
       offset="0"
       id="stop854" /><stop
       style="stop-color:#fbfbfb;stop-opacity:1"
       offset="1"
       id="stop856" /></linearGradient><linearGradient
     inkscape:collect="always"
     xlink:href="#linearGradient858"
     id="linearGradient860"
     x1="102.91463"
     y1="103.40261"
     x2="-5.5629511"
     y2="-10.081627"
     gradientUnits="userSpaceOnUse" /></defs><sodipodi:namedview
   pagecolor="#ffffff"
   bordercolor="#666666"
   borderopacity="1"
   objecttolerance="10"
   gridtolerance="10"
   guidetolerance="10"
   inkscape:pageopacity="0"
   inkscape:pageshadow="2"
   inkscape:window-width="1366"
   inkscape:window-height="740"
   id="namedview43"
   showgrid="false"
   inkscape:zoom="1.7976065"
   inkscape:cx="-75.232273"
   inkscape:cy="34.685172"
   inkscape:window-x="0"
   inkscape:window-y="0"
   inkscape:window-maximized="1"
   inkscape:current-layer="Capa_1" />
<g
   id="g10"
   style="fill-opacity:1;fill:url(#linearGradient860)">
	<g
   id="g8"
   style="fill-opacity:1;fill:url(#linearGradient860)">
		<path
   d="M89.834,1.75H3c-1.654,0-3,1.346-3,3v13.334c0,1.654,1.346,3,3,3h86.833c1.653,0,3-1.346,3-3V4.75    C92.834,3.096,91.488,1.75,89.834,1.75z"
   id="path2"
   style="fill-opacity:1;fill:url(#linearGradient860)" />
		<path
   d="M89.834,36.75H3c-1.654,0-3,1.346-3,3v13.334c0,1.654,1.346,3,3,3h86.833c1.653,0,3-1.346,3-3V39.75    C92.834,38.096,91.488,36.75,89.834,36.75z"
   id="path4"
   style="fill-opacity:1;fill:url(#linearGradient860)" />
		<path
   d="M89.834,71.75H3c-1.654,0-3,1.346-3,3v13.334c0,1.654,1.346,3,3,3h86.833c1.653,0,3-1.346,3-3V74.75    C92.834,73.095,91.488,71.75,89.834,71.75z"
   id="path6"
   style="fill-opacity:1;fill:url(#linearGradient860)" />
	</g>
</g>
<g
   id="g12">
</g>
<g
   id="g14">
</g>
<g
   id="g16">
</g>
<g
   id="g18">
</g>
<g
   id="g20">
</g>
<g
   id="g22">
</g>
<g
   id="g24">
</g>
<g
   id="g26">
</g>
<g
   id="g28">
</g>
<g
   id="g30">
</g>
<g
   id="g32">
</g>
<g
   id="g34">
</g>
<g
   id="g36">
</g>
<g
   id="g38">
</g>
<g
   id="g40">
</g>
</svg>